M48
; DRILL file {KiCad 8.0.0} date 2024-03-06T22:08:14-0500
; FORMAT={-:-/ absolute / inch / decimal}
; #@! TF.CreationDate,2024-03-06T22:08:14-05:00
; #@! TF.GenerationSoftware,Kicad,Pcbnew,8.0.0
; #@! TF.FileFunction,Plated,1,6,PTH
FMAT,2
INCH
; #@! TA.AperFunction,Plated,PTH,ViaDrill
T1C0.0098
; #@! TA.AperFunction,Plated,PTH,ViaDrill
T2C0.0118
; #@! TA.AperFunction,Plated,PTH,ViaDrill
T3C0.0138
; #@! TA.AperFunction,Plated,PTH,ComponentDrill
T4C0.0157
; #@! TA.AperFunction,Plated,PTH,ViaDrill
T5C0.0177
; #@! TA.AperFunction,Plated,PTH,ComponentDrill
T6C0.0197
; #@! TA.AperFunction,Plated,PTH,ComponentDrill
T7C0.0236
; #@! TA.AperFunction,Plated,PTH,ViaDrill
T8C0.0256
; #@! TA.AperFunction,Plated,PTH,ComponentDrill
T9C0.0315
; #@! TA.AperFunction,Plated,PTH,ComponentDrill
T10C0.0320
; #@! TA.AperFunction,Plated,PTH,ComponentDrill
T11C0.0335
; #@! TA.AperFunction,Plated,PTH,ComponentDrill
T12C0.0354
; #@! TA.AperFunction,Plated,PTH,ComponentDrill
T13C0.0394
; #@! TA.AperFunction,Plated,PTH,ComponentDrill
T14C0.0492
; #@! TA.AperFunction,Plated,PTH,ComponentDrill
T15C0.1260
%
G90
G05
T1
X5.5494Y-8.7018
X6.2509Y-8.1369
X6.4448Y-8.3369
X6.7401Y-8.1119
X6.8385Y-8.3119
X7.3083Y-5.5107
X7.3333Y-8.2607
X7.3583Y-5.4357
X7.3583Y-8.2357
X7.3583Y-8.8107
X7.3833Y-8.2107
X7.3833Y-8.7857
X7.4083Y-5.5607
X7.4083Y-8.1857
X7.4083Y-8.7607
X7.4333Y-8.1357
X7.4333Y-8.7857
X7.4583Y-5.5357
X7.4583Y-8.0857
X7.4583Y-8.8357
X7.4833Y-8.0357
X7.5083Y-5.3857
X7.5083Y-7.9857
X7.5083Y-8.7357
X7.5333Y-7.9607
X7.5583Y-5.4857
X7.5583Y-6.6357
X7.5583Y-7.8857
X7.5833Y-3.0357
X7.5833Y-7.8607
X7.5833Y-8.6857
X7.6083Y-5.6857
X7.6083Y-7.7857
X7.6333Y-5.9857
X7.6333Y-7.6357
X7.6583Y-5.9607
X7.6583Y-7.5857
X7.6833Y-2.8357
X7.6833Y-6.0357
X7.6833Y-7.4357
X7.7083Y-6.0107
X7.7083Y-7.5357
X7.7333Y-6.0857
X7.7333Y-7.3357
X7.7583Y-5.6607
X7.7583Y-6.0607
X7.7583Y-7.2857
X7.7833Y-6.1357
X7.7833Y-7.2357
X7.8083Y-6.1107
X7.8083Y-7.1857
X7.8333Y-5.8107
X7.8333Y-7.1357
X7.8583Y-3.5357
X7.8583Y-5.7857
X7.8583Y-7.0857
X7.8833Y-3.5607
X7.9083Y-3.5107
X7.9583Y-3.5857
X7.9833Y-2.8857
X8.0583Y-8.3357
X8.0833Y-2.9357
X8.1083Y-5.7607
X8.1583Y-5.6107
X8.1583Y-8.2107
X8.1833Y-2.9857
X8.1833Y-6.1357
X8.2083Y-6.1607
X8.2083Y-8.2357
X8.2583Y-6.1857
X8.2833Y-3.2857
X8.2833Y-6.1107
X8.3083Y-6.2107
X8.3083Y-8.2607
X8.3333Y-2.1107
X8.3333Y-6.0857
X8.3583Y-6.0607
X8.3583Y-6.2357
X8.3833Y-3.3357
X8.4083Y-6.2607
X8.4833Y-2.8607
X8.5583Y-8.3607
X8.5833Y-2.7107
X8.6083Y-6.3107
X8.6333Y-3.5857
X8.6583Y-6.2857
X8.6833Y-2.6857
X8.7083Y-5.9857
X8.7083Y-6.3607
X8.7583Y-6.3357
X8.7833Y-3.1857
X8.7833Y-6.0107
X8.8083Y-6.4107
X8.8083Y-7.4857
X8.8583Y-6.3857
X8.8833Y-3.5607
X8.8833Y-6.7857
X8.9083Y-6.4607
X8.9583Y-6.4357
X8.9833Y-5.9607
X9.0083Y-6.5107
X9.0333Y-5.6357
X9.0583Y-6.4857
X9.0833Y-3.2357
X9.0833Y-6.7107
X9.0833Y-6.7607
X9.1083Y-6.5357
X9.1583Y-6.5607
X9.1583Y-7.0857
X9.1833Y-3.3357
X9.1833Y-3.5357
X9.1833Y-6.7357
X9.1833Y-6.7857
X9.2083Y-6.5857
X9.2083Y-7.1357
X9.2333Y-6.6107
X9.2333Y-7.1857
X9.2583Y-6.6357
X9.2583Y-7.2357
X9.2833Y-6.6607
X9.2833Y-7.2857
X9.3083Y-6.6857
X9.3083Y-7.3357
X9.3333Y-6.7107
X9.3333Y-7.3857
X9.3583Y-6.6857
X9.3583Y-6.7357
X9.3583Y-7.4357
X9.3833Y-5.8357
X9.3833Y-7.4607
X9.4083Y-5.6607
X9.4083Y-7.4857
X9.4333Y-5.6357
X9.4333Y-7.5107
X9.4833Y-3.5107
X9.4833Y-6.0357
T2
X3.9422Y-2.9899
X4.0701Y-3.0411
X4.2492Y-2.9899
X4.2748Y-3.0922
X4.4333Y-6.0607
X4.4833Y-8.2107
X4.5333Y-6.0357
X4.5333Y-8.1607
X4.5833Y-6.0857
X4.5833Y-7.8857
X4.6333Y-6.0107
X4.6333Y-8.1107
X4.6833Y-6.1107
X4.6833Y-7.9607
X4.7333Y-5.9857
X4.7333Y-8.2607
X4.7833Y-6.1357
X4.7833Y-7.8607
X4.8333Y-5.9607
X4.8333Y-8.3607
X4.8583Y-7.8107
X4.8833Y-8.0107
X4.9083Y-7.9107
X4.9833Y-7.2357
X4.9833Y-8.3107
X5.0083Y-6.7857
X5.1083Y-6.7607
X5.1333Y-6.4857
X5.1583Y-5.5357
X5.1833Y-7.3357
X5.1833Y-7.7357
X5.2217Y-3.9367
X5.2333Y-6.7357
X5.2333Y-7.7857
X5.2583Y-5.4857
X5.2583Y-5.9107
X5.2833Y-6.7107
X5.3083Y-6.7607
X5.3209Y-3.9111
X5.3333Y-6.6857
X5.3583Y-6.4607
X5.3752Y-3.8855
X5.3833Y-6.6607
X5.3833Y-8.2107
X5.4333Y-6.6357
X5.4333Y-7.7857
X5.4583Y-5.6857
X5.4583Y-6.5107
X5.4833Y-6.6107
X5.4833Y-8.4107
X5.5032Y-3.9623
X5.5333Y-6.5857
X5.5333Y-7.8607
X5.5583Y-5.7607
X5.5583Y-6.5357
X5.5833Y-6.5607
X5.5833Y-8.3107
X5.6333Y-6.5357
X5.6333Y-7.9607
X5.6583Y-5.9357
X5.6583Y-6.4107
X5.6833Y-6.5107
X5.6833Y-8.2107
X5.7083Y-5.9357
X5.7333Y-6.4857
X5.7333Y-7.3857
X5.7333Y-8.3607
X5.7583Y-6.6357
X5.7833Y-6.4607
X5.7833Y-8.2607
X5.8083Y-6.6857
X5.8333Y-6.4357
X5.8333Y-8.0607
X5.8583Y-6.3107
X5.8833Y-6.4107
X5.8833Y-8.0107
X5.9333Y-6.3857
X5.9333Y-8.1107
X5.9583Y-6.7357
X5.9833Y-6.3607
X6.0333Y-6.3357
X6.0583Y-5.9857
X6.0833Y-6.3107
X6.1333Y-6.2857
X6.1583Y-6.0357
X6.1833Y-6.2607
X6.2333Y-6.2357
X6.2583Y-6.0857
X6.2833Y-6.2107
X6.3333Y-6.1857
X6.3833Y-6.1607
X6.4333Y-6.1357
X6.4833Y-6.1107
X6.5333Y-4.3107
X6.5333Y-6.0857
X6.5833Y-6.0607
X6.6083Y-4.2357
X6.6333Y-6.0357
X6.6833Y-6.0107
X6.7083Y-5.8857
X6.7333Y-5.9857
X6.7833Y-4.2107
X6.7833Y-5.8607
X6.8333Y-5.9607
X6.8333Y-6.1607
X6.8583Y-4.1857
X6.8833Y-5.9357
X6.8833Y-6.7857
X6.9333Y-5.9107
X6.9583Y-5.6607
X6.9833Y-5.8857
X7.0333Y-5.8607
X7.0333Y-6.2107
X7.0833Y-5.8357
X7.0833Y-6.1857
X7.1333Y-5.8107
X7.1333Y-6.2357
X7.1833Y-5.7857
X7.1833Y-6.2607
X7.2333Y-5.7607
X7.2333Y-6.9857
X7.2833Y-5.7357
X7.2833Y-7.0357
X7.2833Y-7.2857
X7.3333Y-5.7107
X7.3833Y-5.6857
X7.4333Y-5.6607
X7.4333Y-8.2607
X7.4833Y-5.6357
X7.5333Y-5.6107
X7.5583Y-8.2857
X7.5833Y-5.5857
X7.6333Y-5.5607
X7.6583Y-8.1857
X7.6833Y-5.5357
X7.7329Y-8.0227
X7.7333Y-5.5107
X7.734Y-8.1029
X7.7833Y-5.4857
X7.8333Y-5.4607
X7.8833Y-5.4357
X7.9333Y-5.4107
X7.9833Y-5.3857
X8.0083Y-2.8357
X8.1083Y-2.9107
X8.2083Y-2.9607
X8.4333Y-2.8857
X8.4833Y-3.0107
X8.5083Y-4.8107
X8.5085Y-4.7855
X8.5333Y-2.9357
X8.5549Y-4.8107
X8.5583Y-4.8357
X8.5833Y-2.9607
X8.6333Y-2.9857
X8.6833Y-2.9107
X8.7333Y-3.0357
X8.7532Y-8.2359
X8.8083Y-3.0857
X8.8333Y-4.8607
X8.8399Y-4.8364
X8.8833Y-3.1357
X8.9333Y-4.8857
X8.9508Y-4.8685
X8.9833Y-3.1857
X9.1083Y-8.2857
X9.2266Y-7.907
X9.2967Y-7.8533
X9.2967Y-8.0738
X9.2984Y-7.6408
X9.3479Y-8.2457
X9.3508Y-7.8003
X9.3515Y-8.0186
X9.3653Y-8.3033
X9.4333Y-6.9607
X9.4936Y-8.1282
X9.5626Y-7.9727
T3
X3.6459Y-4.2022
X5.5443Y-8.7513
X5.7055Y-8.0752
X6.0977Y-7.3235
X6.1502Y-7.7666
X6.2509Y-7.767
X6.3464Y-7.9369
X6.3665Y-7.0605
X6.3668Y-7.5101
X6.4463Y-7.7666
X6.5439Y-7.7655
X6.5439Y-7.9368
X6.6417Y-7.9369
X6.6833Y-7.7357
X6.7403Y-7.6127
X6.7405Y-7.7666
X6.8384Y-7.767
X6.9382Y-7.7684
X6.9628Y-7.6133
X7.4324Y-4.6414
X7.6617Y-7.9348
X7.6626Y-7.7366
X7.663Y-7.8361
X7.7362Y-7.4018
X7.7362Y-7.4767
X8.0564Y-8.7453
X8.1064Y-2.6017
X8.1895Y-2.6011
X8.372Y-8.3235
X8.4476Y-8.324
X8.4551Y-2.6017
X8.4704Y-6.7639
X8.5409Y-2.6017
X8.5457Y-6.7643
X8.6622Y-4.744
X8.6833Y-4.6384
X8.7385Y-4.7445
X8.7943Y-4.5318
X8.7952Y-4.6384
X8.8066Y-2.6019
X8.889Y-2.6019
X9.2805Y-7.4737
X9.5056Y-7.5569
X9.5061Y-6.7324
X9.5069Y-7.2325
T4
X3.9768Y-2.2225
X3.9768Y-2.2757
X4.0103Y-2.2225
X4.0103Y-2.2757
X4.0437Y-2.2225
X4.0437Y-2.2757
X4.0772Y-2.2225
X4.0772Y-2.2757
X4.1107Y-2.2225
X4.1107Y-2.2757
X4.1441Y-2.2225
X4.1441Y-2.2757
X4.1776Y-2.2225
X4.1776Y-2.2757
X4.2111Y-2.2225
X4.2111Y-2.2757
T5
X8.5333Y-4.6857
X8.6333Y-4.6857
T6
X3.4552Y-5.0107
X3.4552Y-5.1107
X3.4583Y-4.5107
X3.4583Y-4.6107
X3.4583Y-4.7107
X3.4583Y-4.8107
X3.4583Y-4.9107
X3.4583Y-5.2107
X3.4583Y-5.3107
X3.4583Y-5.4107
X3.4583Y-5.5107
X3.4583Y-5.6107
X3.4583Y-5.7107
X3.4583Y-5.8107
X3.4583Y-5.9107
X3.4583Y-6.0107
X3.4583Y-6.1107
X3.4583Y-6.2107
X3.4583Y-6.3107
X3.4583Y-6.4107
X3.4583Y-6.5107
X3.4583Y-6.6107
X3.4583Y-6.7107
X3.4583Y-6.8107
X3.4583Y-6.9107
X3.4583Y-7.0107
X3.4583Y-7.1107
X3.4583Y-7.2107
X3.4583Y-7.3107
X3.4583Y-7.4107
X3.4583Y-7.5107
X3.4583Y-7.6107
X3.5583Y-4.4607
X3.5583Y-4.5607
X3.5583Y-4.6607
X3.5583Y-4.7607
X3.5583Y-4.8607
X3.5583Y-4.9607
X3.5583Y-5.0607
X3.5583Y-5.1607
X3.5583Y-5.2607
X3.5583Y-5.3607
X3.5583Y-5.4607
X3.5583Y-5.5607
X3.5583Y-5.6607
X3.5583Y-5.7607
X3.5583Y-5.8607
X3.5583Y-5.9607
X3.5583Y-6.0607
X3.5583Y-6.1607
X3.5583Y-6.2607
X3.5583Y-6.3607
X3.5583Y-6.4607
X3.5583Y-6.5607
X3.5583Y-6.6607
X3.5583Y-6.7607
X3.5583Y-6.8607
X3.5583Y-6.9607
X3.5583Y-7.0607
X3.5583Y-7.1607
X3.5583Y-7.2607
X3.5583Y-7.3607
X3.5583Y-7.4607
X3.5583Y-7.5607
T8
X3.5083Y-4.0607
X3.5583Y-4.0107
X3.6083Y-4.0607
X3.6583Y-4.0107
X3.7083Y-4.0607
X3.7583Y-4.0107
X3.7667Y-2.6998
X3.8083Y-4.0607
X3.8583Y-4.0107
X3.9083Y-4.0607
X3.9583Y-4.0107
X4.0021Y-2.5251
X4.0083Y-4.0607
X4.0583Y-4.0107
X4.0927Y-2.5251
X4.0927Y-2.7731
X4.1083Y-4.0607
X4.1583Y-4.0107
X4.1832Y-2.5251
X4.2083Y-4.0607
X4.2583Y-4.0107
X4.3583Y-4.0607
X4.4065Y-2.6998
X4.4083Y-4.0107
X4.4583Y-4.0607
X4.5083Y-4.0107
X4.5583Y-4.0607
X4.6075Y-3.732
X4.6083Y-4.0107
X4.6583Y-4.0607
X4.7083Y-4.0107
X4.7583Y-4.0607
X5.0833Y-4.5857
X6.6583Y-3.7357
T9
X4.4833Y-7.0607
X4.4833Y-7.6607
X4.5833Y-7.0607
X4.5833Y-7.6607
X4.6833Y-7.0607
X4.6833Y-7.6607
X4.7833Y-7.0607
X4.7833Y-7.6607
X4.8833Y-7.0607
X4.8833Y-7.6607
X4.9333Y-7.9625
X4.9333Y-8.0625
X4.9333Y-8.1625
X4.9333Y-8.2625
X4.9833Y-7.0607
X4.9833Y-7.6607
X5.0333Y-7.8625
X5.0333Y-7.9625
X5.0333Y-8.0625
X5.0333Y-8.1625
X5.0333Y-8.2625
X5.0333Y-8.3625
X5.0833Y-7.0607
X5.0833Y-7.6607
X5.1333Y-7.8625
X5.1333Y-7.9625
X5.1333Y-8.2625
X5.1333Y-8.3625
X5.1833Y-7.0607
X5.1833Y-7.6607
X5.2333Y-7.8625
X5.2333Y-7.9625
X5.2333Y-8.2625
X5.2333Y-8.3625
X5.2833Y-7.0607
X5.2833Y-7.6607
X5.3333Y-7.8625
X5.3333Y-7.9625
X5.3333Y-8.2625
X5.3333Y-8.3625
X5.3833Y-7.0607
X5.3833Y-7.6607
X5.4333Y-7.8625
X5.4333Y-7.9625
X5.4333Y-8.0625
X5.4333Y-8.1625
X5.4333Y-8.2625
X5.4333Y-8.3625
X5.4833Y-7.0607
X5.4833Y-7.6607
X5.5333Y-7.9625
X5.5333Y-8.0625
X5.5333Y-8.1625
X5.5333Y-8.2625
X5.5833Y-7.0607
X5.5833Y-7.6607
X5.6833Y-7.0607
X5.6833Y-7.6607
X5.7833Y-7.0607
X5.7833Y-7.6607
X5.8833Y-7.0607
X5.8833Y-7.6607
X5.9833Y-7.0607
X5.9833Y-7.6607
X6.6333Y-7.0357
X6.6333Y-7.1357
X6.6333Y-7.2357
X6.6333Y-7.3357
X6.7333Y-6.9357
X6.7333Y-7.0357
X6.7333Y-7.1357
X6.7333Y-7.2357
X6.7333Y-7.3357
X6.7333Y-7.4357
X6.8333Y-6.9357
X6.8333Y-7.0357
X6.8333Y-7.3357
X6.8333Y-7.4357
X6.9333Y-6.9357
X6.9333Y-7.0357
X6.9333Y-7.3357
X6.9333Y-7.4357
X7.0333Y-6.9357
X7.0333Y-7.0357
X7.0333Y-7.1357
X7.0333Y-7.2357
X7.0333Y-7.3357
X7.0333Y-7.4357
X7.1333Y-7.0357
X7.1333Y-7.1357
X7.1333Y-7.2357
X7.1333Y-7.3357
X7.1833Y-3.6865
X7.1833Y-4.3857
X7.2833Y-3.6865
X7.2833Y-4.3857
X7.3833Y-3.6865
X7.3833Y-4.3857
X7.4833Y-3.6865
X7.4833Y-4.3857
X7.5833Y-3.6865
X7.5833Y-4.3857
X7.6833Y-3.6865
X7.6833Y-4.3857
X7.7833Y-3.6865
X7.7833Y-4.3857
X7.8833Y-3.6865
X7.8833Y-4.3857
X7.9083Y-7.0357
X7.9083Y-7.1357
X7.9083Y-7.2357
X7.9083Y-7.3357
X7.9083Y-7.4357
X7.9083Y-7.5357
X7.9083Y-7.6357
X7.9083Y-7.7357
X7.9083Y-7.8357
X7.9083Y-7.9357
X7.9083Y-8.0357
X7.9833Y-3.6865
X7.9833Y-4.3857
X8.0083Y-6.9357
X8.0083Y-7.0357
X8.0083Y-7.1357
X8.0083Y-7.2357
X8.0083Y-7.3357
X8.0083Y-7.4357
X8.0083Y-7.5357
X8.0083Y-7.6357
X8.0083Y-7.7357
X8.0083Y-7.8357
X8.0083Y-7.9357
X8.0083Y-8.0357
X8.0083Y-8.1357
X8.0833Y-3.6865
X8.0833Y-4.3857
X8.1083Y-6.9357
X8.1083Y-7.0357
X8.1083Y-8.0357
X8.1083Y-8.1357
X8.1833Y-3.6865
X8.1833Y-4.3857
X8.2083Y-6.9357
X8.2083Y-7.0357
X8.2083Y-8.0357
X8.2083Y-8.1357
X8.2833Y-3.6865
X8.2833Y-4.3857
X8.3083Y-6.9357
X8.3083Y-7.0357
X8.3083Y-8.0357
X8.3083Y-8.1357
X8.3833Y-3.6865
X8.3833Y-4.3857
X8.4083Y-6.9357
X8.4083Y-7.0357
X8.4083Y-8.0357
X8.4083Y-8.1357
X8.4833Y-3.6865
X8.4833Y-4.3857
X8.5083Y-6.9357
X8.5083Y-7.0357
X8.5083Y-8.0357
X8.5083Y-8.1357
X8.5833Y-3.6865
X8.5833Y-4.3857
X8.6083Y-6.9357
X8.6083Y-7.0357
X8.6083Y-8.0357
X8.6083Y-8.1357
X8.6833Y-3.6865
X8.6833Y-4.3857
X8.7083Y-6.9357
X8.7083Y-7.0357
X8.7083Y-8.0357
X8.7083Y-8.1357
X8.7833Y-3.6865
X8.7833Y-4.3857
X8.8083Y-6.9357
X8.8083Y-7.0357
X8.8083Y-8.0357
X8.8083Y-8.1357
X8.8833Y-3.6865
X8.8833Y-4.3857
X8.9083Y-6.9357
X8.9083Y-7.0357
X8.9083Y-8.0357
X8.9083Y-8.1357
X8.9833Y-3.6865
X8.9833Y-4.3857
X9.0083Y-6.9357
X9.0083Y-7.0357
X9.0083Y-7.1357
X9.0083Y-7.2357
X9.0083Y-7.3357
X9.0083Y-7.4357
X9.0083Y-7.5357
X9.0083Y-7.6357
X9.0083Y-7.7357
X9.0083Y-7.8357
X9.0083Y-7.9357
X9.0083Y-8.0357
X9.0083Y-8.1357
X9.0833Y-3.6865
X9.0833Y-4.3857
X9.1083Y-7.0357
X9.1083Y-7.1357
X9.1083Y-7.2357
X9.1083Y-7.3357
X9.1083Y-7.4357
X9.1083Y-7.5357
X9.1083Y-7.6357
X9.1083Y-7.7357
X9.1083Y-7.8357
X9.1083Y-7.9357
X9.1083Y-8.0357
X9.1833Y-3.6865
X9.1833Y-4.3857
X9.2833Y-3.6865
X9.2833Y-4.3857
X9.3833Y-3.6865
X9.3833Y-4.3857
X9.4833Y-3.6865
X9.4833Y-4.3857
T10
X5.1596Y-8.6881
X5.1596Y-8.8881
X5.4596Y-8.6881
X5.4596Y-8.8881
X7.6734Y-8.6841
X7.6734Y-8.8841
X7.9734Y-8.6841
X7.9734Y-8.8841
X9.0938Y-8.404
X9.0938Y-8.604
X9.3938Y-8.404
X9.3938Y-8.604
T11
X5.0215Y-5.1063
X5.0215Y-5.3063
X5.1215Y-5.1063
X5.1215Y-5.3063
X5.2215Y-5.1063
X5.2215Y-5.3063
X5.3215Y-5.1063
X5.3215Y-5.3063
X5.4215Y-5.1063
X5.4215Y-5.3063
X5.5215Y-5.1063
X5.5215Y-5.3063
X5.6215Y-5.1063
X5.6215Y-5.3063
X5.7215Y-5.1063
X5.7215Y-5.3063
X5.8215Y-5.1063
X5.8215Y-5.3063
X5.9215Y-5.1063
X5.9215Y-5.3063
X6.0215Y-5.1063
X6.0215Y-5.3063
X6.1215Y-5.1063
X6.1215Y-5.3063
X6.2215Y-5.1063
X6.2215Y-5.3063
X6.3215Y-5.1063
X6.3215Y-5.3063
X6.4215Y-5.1063
X6.4215Y-5.3063
X6.5215Y-5.1063
X6.5215Y-5.3063
X6.6215Y-5.1063
X6.6215Y-5.3063
X6.7215Y-5.1063
X6.7215Y-5.3063
X6.8215Y-5.1063
X6.8215Y-5.3063
X6.9215Y-5.1063
X6.9215Y-5.3063
X7.0215Y-5.1063
X7.0215Y-5.3063
X7.1215Y-5.1063
X7.1215Y-5.3063
X7.2215Y-5.1063
X7.2215Y-5.3063
X7.3215Y-5.1063
X7.3215Y-5.3063
X7.4215Y-5.1063
X7.4215Y-5.3063
X7.5215Y-5.1063
X7.5215Y-5.3063
X7.6215Y-5.1063
X7.6215Y-5.3063
X7.7215Y-5.1063
X7.7215Y-5.3063
X7.8215Y-5.1063
X7.8215Y-5.3063
X7.9215Y-5.1063
X7.9215Y-5.3063
X8.0215Y-5.1063
X8.0215Y-5.3063
X8.1215Y-5.1063
X8.1215Y-5.3063
T12
X3.7953Y-4.2014
X3.8953Y-4.2014
X4.4969Y-4.2014
X4.5969Y-4.2014
X8.1306Y-8.4978
X8.1306Y-8.5978
X8.3621Y-8.4978
X8.3621Y-8.5978
X8.5991Y-8.4978
X8.5991Y-8.5978
T13
X4.8656Y-8.6376
X4.9656Y-8.6376
X5.1209Y-4.2719
X5.1209Y-4.3719
X5.2209Y-4.2719
X5.2209Y-4.3719
X5.3209Y-4.2719
X5.3209Y-4.3719
X5.4209Y-4.2719
X5.4209Y-4.3719
X5.5209Y-4.2719
X5.5209Y-4.3719
X5.6209Y-4.2719
X5.6209Y-4.3719
X5.7209Y-4.2719
X5.7209Y-4.3719
X5.8209Y-4.2719
X5.8209Y-4.3719
X5.9209Y-4.2719
X5.9209Y-4.3719
X6.0209Y-4.2719
X6.0209Y-4.3719
X6.1209Y-4.2719
X6.1209Y-4.3719
X6.2209Y-4.2719
X6.2209Y-4.3719
X6.3209Y-4.2719
X6.3209Y-4.3719
X6.4209Y-4.2719
X6.4209Y-4.3719
X6.9126Y-2.6695
X7.0126Y-2.6695
X7.1126Y-2.6695
X7.2126Y-2.6695
X7.3126Y-2.6695
X7.4126Y-2.6695
X7.5126Y-2.6695
X7.6126Y-2.6695
X7.7126Y-2.6695
X7.7732Y-8.5054
X7.8732Y-8.5054
X7.9626Y-2.1445
X7.9626Y-2.2445
X7.9626Y-2.3445
X7.9626Y-2.4445
X7.9626Y-2.5445
X7.9626Y-2.6445
X8.4764Y-2.231
X8.5215Y-2.153
X8.5215Y-2.3089
X8.5666Y-2.231
X8.6116Y-2.153
X8.6116Y-2.3089
X8.6567Y-2.231
X8.7018Y-2.153
X8.7018Y-2.3089
X8.7469Y-2.231
X8.7919Y-2.153
X8.7919Y-2.3089
X8.837Y-2.231
X8.8821Y-2.153
X8.8821Y-2.3089
X9.2719Y-2.6243
X9.2719Y-2.7243
X9.2719Y-2.8243
X9.2719Y-2.9243
X9.2719Y-3.0243
X9.2719Y-3.1243
X9.2719Y-3.2243
X9.2719Y-3.3243
X9.3719Y-2.6243
X9.3719Y-2.7243
X9.3719Y-2.8243
X9.3719Y-2.9243
X9.3719Y-3.0243
X9.3719Y-3.1243
X9.3719Y-3.2243
X9.3719Y-3.3243
X9.5127Y-8.4533
X9.5127Y-8.5533
T14
X3.5658Y-8.927
X3.7233Y-8.927
X3.8808Y-8.927
X4.1367Y-8.927
X4.2942Y-8.927
X4.4517Y-8.927
X4.6091Y-8.927
X8.5091Y-8.9453
X8.6666Y-8.9453
X8.8241Y-8.9453
X8.9816Y-8.9453
X9.2375Y-8.9453
X9.395Y-8.9453
X9.5524Y-8.9453
T15
X4.295Y-8.4727
X4.6288Y-5.1938
X5.044Y-2.2523
X6.497Y-2.2523
X6.9461Y-3.2522
X8.1992Y-2.2282
X8.5264Y-5.1938
X8.8976Y-8.4727
X9.1835Y-2.2282
X9.4934Y-2.2631
T7
G00X3.9237Y-2.1198
M15
G01X3.9237Y-2.0883
M16
G05
G00X3.9237Y-2.2666
M15
G01X3.9237Y-2.2076
M16
G05
G00X4.2642Y-2.1198
M15
G01X4.2642Y-2.0883
M16
G05
G00X4.2642Y-2.2666
M15
G01X4.2642Y-2.2076
M16
G05
M30
