%TF.GenerationSoftware,KiCad,Pcbnew,8.0.0*%
%TF.CreationDate,2024-03-06T22:08:17-05:00*%
%TF.ProjectId,Sentinel 65X - Prototype 4,53656e74-696e-4656-9c20-363558202d20,rev?*%
%TF.SameCoordinates,Original*%
%TF.FileFunction,Legend,Bot*%
%TF.FilePolarity,Positive*%
%FSLAX46Y46*%
G04 Gerber Fmt 4.6, Leading zero omitted, Abs format (unit mm)*
G04 Created by KiCad (PCBNEW 8.0.0) date 2024-03-06 22:08:17*
%MOMM*%
%LPD*%
G01*
G04 APERTURE LIST*
%ADD10C,0.150000*%
%ADD11C,0.300000*%
G04 APERTURE END LIST*
D10*
X93048083Y-158981992D02*
X93048083Y-157981992D01*
X93048083Y-157981992D02*
X92809988Y-157981992D01*
X92809988Y-157981992D02*
X92667131Y-158029611D01*
X92667131Y-158029611D02*
X92571893Y-158124849D01*
X92571893Y-158124849D02*
X92524274Y-158220087D01*
X92524274Y-158220087D02*
X92476655Y-158410563D01*
X92476655Y-158410563D02*
X92476655Y-158553420D01*
X92476655Y-158553420D02*
X92524274Y-158743896D01*
X92524274Y-158743896D02*
X92571893Y-158839134D01*
X92571893Y-158839134D02*
X92667131Y-158934373D01*
X92667131Y-158934373D02*
X92809988Y-158981992D01*
X92809988Y-158981992D02*
X93048083Y-158981992D01*
X91524274Y-158981992D02*
X92095702Y-158981992D01*
X91809988Y-158981992D02*
X91809988Y-157981992D01*
X91809988Y-157981992D02*
X91905226Y-158124849D01*
X91905226Y-158124849D02*
X92000464Y-158220087D01*
X92000464Y-158220087D02*
X92095702Y-158267706D01*
X93905226Y-176172105D02*
X93429036Y-176172105D01*
X94000464Y-176457820D02*
X93667131Y-175457820D01*
X93667131Y-175457820D02*
X93333798Y-176457820D01*
X92476655Y-176457820D02*
X93048083Y-176457820D01*
X92762369Y-176457820D02*
X92762369Y-175457820D01*
X92762369Y-175457820D02*
X92857607Y-175600677D01*
X92857607Y-175600677D02*
X92952845Y-175695915D01*
X92952845Y-175695915D02*
X93048083Y-175743534D01*
X91524274Y-176457820D02*
X92095702Y-176457820D01*
X91809988Y-176457820D02*
X91809988Y-175457820D01*
X91809988Y-175457820D02*
X91905226Y-175600677D01*
X91905226Y-175600677D02*
X92000464Y-175695915D01*
X92000464Y-175695915D02*
X92095702Y-175743534D01*
X93905226Y-160524969D02*
X93429036Y-160524969D01*
X94000464Y-160810684D02*
X93667131Y-159810684D01*
X93667131Y-159810684D02*
X93333798Y-160810684D01*
X93048083Y-159905922D02*
X93000464Y-159858303D01*
X93000464Y-159858303D02*
X92905226Y-159810684D01*
X92905226Y-159810684D02*
X92667131Y-159810684D01*
X92667131Y-159810684D02*
X92571893Y-159858303D01*
X92571893Y-159858303D02*
X92524274Y-159905922D01*
X92524274Y-159905922D02*
X92476655Y-160001160D01*
X92476655Y-160001160D02*
X92476655Y-160096398D01*
X92476655Y-160096398D02*
X92524274Y-160239255D01*
X92524274Y-160239255D02*
X93095702Y-160810684D01*
X93095702Y-160810684D02*
X92476655Y-160810684D01*
X92143321Y-159810684D02*
X91524274Y-159810684D01*
X91524274Y-159810684D02*
X91857607Y-160191636D01*
X91857607Y-160191636D02*
X91714750Y-160191636D01*
X91714750Y-160191636D02*
X91619512Y-160239255D01*
X91619512Y-160239255D02*
X91571893Y-160286874D01*
X91571893Y-160286874D02*
X91524274Y-160382112D01*
X91524274Y-160382112D02*
X91524274Y-160620207D01*
X91524274Y-160620207D02*
X91571893Y-160715445D01*
X91571893Y-160715445D02*
X91619512Y-160763065D01*
X91619512Y-160763065D02*
X91714750Y-160810684D01*
X91714750Y-160810684D02*
X92000464Y-160810684D01*
X92000464Y-160810684D02*
X92095702Y-160763065D01*
X92095702Y-160763065D02*
X92143321Y-160715445D01*
X93952845Y-125203066D02*
X93809988Y-125250685D01*
X93809988Y-125250685D02*
X93571893Y-125250685D01*
X93571893Y-125250685D02*
X93476655Y-125203066D01*
X93476655Y-125203066D02*
X93429036Y-125155446D01*
X93429036Y-125155446D02*
X93381417Y-125060208D01*
X93381417Y-125060208D02*
X93381417Y-124964970D01*
X93381417Y-124964970D02*
X93429036Y-124869732D01*
X93429036Y-124869732D02*
X93476655Y-124822113D01*
X93476655Y-124822113D02*
X93571893Y-124774494D01*
X93571893Y-124774494D02*
X93762369Y-124726875D01*
X93762369Y-124726875D02*
X93857607Y-124679256D01*
X93857607Y-124679256D02*
X93905226Y-124631637D01*
X93905226Y-124631637D02*
X93952845Y-124536399D01*
X93952845Y-124536399D02*
X93952845Y-124441161D01*
X93952845Y-124441161D02*
X93905226Y-124345923D01*
X93905226Y-124345923D02*
X93857607Y-124298304D01*
X93857607Y-124298304D02*
X93762369Y-124250685D01*
X93762369Y-124250685D02*
X93524274Y-124250685D01*
X93524274Y-124250685D02*
X93381417Y-124298304D01*
X92952845Y-125250685D02*
X92952845Y-124250685D01*
X92952845Y-124250685D02*
X92714750Y-124250685D01*
X92714750Y-124250685D02*
X92571893Y-124298304D01*
X92571893Y-124298304D02*
X92476655Y-124393542D01*
X92476655Y-124393542D02*
X92429036Y-124488780D01*
X92429036Y-124488780D02*
X92381417Y-124679256D01*
X92381417Y-124679256D02*
X92381417Y-124822113D01*
X92381417Y-124822113D02*
X92429036Y-125012589D01*
X92429036Y-125012589D02*
X92476655Y-125107827D01*
X92476655Y-125107827D02*
X92571893Y-125203066D01*
X92571893Y-125203066D02*
X92714750Y-125250685D01*
X92714750Y-125250685D02*
X92952845Y-125250685D01*
X92000464Y-124964970D02*
X91524274Y-124964970D01*
X92095702Y-125250685D02*
X91762369Y-124250685D01*
X91762369Y-124250685D02*
X91429036Y-125250685D01*
X87798000Y-195209801D02*
X87798000Y-194876468D01*
X88321810Y-194876468D02*
X87321810Y-194876468D01*
X87321810Y-194876468D02*
X87321810Y-195352658D01*
X88321810Y-195733611D02*
X87655143Y-195733611D01*
X87845619Y-195733611D02*
X87750381Y-195781230D01*
X87750381Y-195781230D02*
X87702762Y-195828849D01*
X87702762Y-195828849D02*
X87655143Y-195924087D01*
X87655143Y-195924087D02*
X87655143Y-196019325D01*
X88321810Y-196495516D02*
X88274191Y-196400278D01*
X88274191Y-196400278D02*
X88226571Y-196352659D01*
X88226571Y-196352659D02*
X88131333Y-196305040D01*
X88131333Y-196305040D02*
X87845619Y-196305040D01*
X87845619Y-196305040D02*
X87750381Y-196352659D01*
X87750381Y-196352659D02*
X87702762Y-196400278D01*
X87702762Y-196400278D02*
X87655143Y-196495516D01*
X87655143Y-196495516D02*
X87655143Y-196638373D01*
X87655143Y-196638373D02*
X87702762Y-196733611D01*
X87702762Y-196733611D02*
X87750381Y-196781230D01*
X87750381Y-196781230D02*
X87845619Y-196828849D01*
X87845619Y-196828849D02*
X88131333Y-196828849D01*
X88131333Y-196828849D02*
X88226571Y-196781230D01*
X88226571Y-196781230D02*
X88274191Y-196733611D01*
X88274191Y-196733611D02*
X88321810Y-196638373D01*
X88321810Y-196638373D02*
X88321810Y-196495516D01*
X87655143Y-197257421D02*
X88321810Y-197257421D01*
X87750381Y-197257421D02*
X87702762Y-197305040D01*
X87702762Y-197305040D02*
X87655143Y-197400278D01*
X87655143Y-197400278D02*
X87655143Y-197543135D01*
X87655143Y-197543135D02*
X87702762Y-197638373D01*
X87702762Y-197638373D02*
X87798000Y-197685992D01*
X87798000Y-197685992D02*
X88321810Y-197685992D01*
X87655143Y-198019326D02*
X87655143Y-198400278D01*
X87321810Y-198162183D02*
X88178952Y-198162183D01*
X88178952Y-198162183D02*
X88274191Y-198209802D01*
X88274191Y-198209802D02*
X88321810Y-198305040D01*
X88321810Y-198305040D02*
X88321810Y-198400278D01*
X95571892Y-190909730D02*
X94809988Y-190909730D01*
X95190940Y-191290683D02*
X95190940Y-190528778D01*
X94429035Y-190290683D02*
X93809988Y-190290683D01*
X93809988Y-190290683D02*
X94143321Y-190671635D01*
X94143321Y-190671635D02*
X94000464Y-190671635D01*
X94000464Y-190671635D02*
X93905226Y-190719254D01*
X93905226Y-190719254D02*
X93857607Y-190766873D01*
X93857607Y-190766873D02*
X93809988Y-190862111D01*
X93809988Y-190862111D02*
X93809988Y-191100206D01*
X93809988Y-191100206D02*
X93857607Y-191195444D01*
X93857607Y-191195444D02*
X93905226Y-191243064D01*
X93905226Y-191243064D02*
X94000464Y-191290683D01*
X94000464Y-191290683D02*
X94286178Y-191290683D01*
X94286178Y-191290683D02*
X94381416Y-191243064D01*
X94381416Y-191243064D02*
X94429035Y-191195444D01*
X93381416Y-191195444D02*
X93333797Y-191243064D01*
X93333797Y-191243064D02*
X93381416Y-191290683D01*
X93381416Y-191290683D02*
X93429035Y-191243064D01*
X93429035Y-191243064D02*
X93381416Y-191195444D01*
X93381416Y-191195444D02*
X93381416Y-191290683D01*
X93000464Y-190290683D02*
X92381417Y-190290683D01*
X92381417Y-190290683D02*
X92714750Y-190671635D01*
X92714750Y-190671635D02*
X92571893Y-190671635D01*
X92571893Y-190671635D02*
X92476655Y-190719254D01*
X92476655Y-190719254D02*
X92429036Y-190766873D01*
X92429036Y-190766873D02*
X92381417Y-190862111D01*
X92381417Y-190862111D02*
X92381417Y-191100206D01*
X92381417Y-191100206D02*
X92429036Y-191195444D01*
X92429036Y-191195444D02*
X92476655Y-191243064D01*
X92476655Y-191243064D02*
X92571893Y-191290683D01*
X92571893Y-191290683D02*
X92857607Y-191290683D01*
X92857607Y-191290683D02*
X92952845Y-191243064D01*
X92952845Y-191243064D02*
X93000464Y-191195444D01*
X92095702Y-190290683D02*
X91762369Y-191290683D01*
X91762369Y-191290683D02*
X91429036Y-190290683D01*
X92952845Y-178304969D02*
X92476655Y-178304969D01*
X93048083Y-178590684D02*
X92714750Y-177590684D01*
X92714750Y-177590684D02*
X92381417Y-178590684D01*
X92000464Y-178590684D02*
X91809988Y-178590684D01*
X91809988Y-178590684D02*
X91714750Y-178543065D01*
X91714750Y-178543065D02*
X91667131Y-178495445D01*
X91667131Y-178495445D02*
X91571893Y-178352588D01*
X91571893Y-178352588D02*
X91524274Y-178162112D01*
X91524274Y-178162112D02*
X91524274Y-177781160D01*
X91524274Y-177781160D02*
X91571893Y-177685922D01*
X91571893Y-177685922D02*
X91619512Y-177638303D01*
X91619512Y-177638303D02*
X91714750Y-177590684D01*
X91714750Y-177590684D02*
X91905226Y-177590684D01*
X91905226Y-177590684D02*
X92000464Y-177638303D01*
X92000464Y-177638303D02*
X92048083Y-177685922D01*
X92048083Y-177685922D02*
X92095702Y-177781160D01*
X92095702Y-177781160D02*
X92095702Y-178019255D01*
X92095702Y-178019255D02*
X92048083Y-178114493D01*
X92048083Y-178114493D02*
X92000464Y-178162112D01*
X92000464Y-178162112D02*
X91905226Y-178209731D01*
X91905226Y-178209731D02*
X91714750Y-178209731D01*
X91714750Y-178209731D02*
X91619512Y-178162112D01*
X91619512Y-178162112D02*
X91571893Y-178114493D01*
X91571893Y-178114493D02*
X91524274Y-178019255D01*
X93762368Y-130209851D02*
X93762368Y-129209851D01*
X93762368Y-129209851D02*
X93190940Y-130209851D01*
X93190940Y-130209851D02*
X93190940Y-129209851D01*
X92714749Y-130209851D02*
X92714749Y-129209851D01*
X92714749Y-129209851D02*
X92381416Y-129924136D01*
X92381416Y-129924136D02*
X92048083Y-129209851D01*
X92048083Y-129209851D02*
X92048083Y-130209851D01*
X91571892Y-130209851D02*
X91571892Y-129209851D01*
X93900464Y-128932232D02*
X91433798Y-128932232D01*
X93333798Y-120075445D02*
X93381417Y-120123065D01*
X93381417Y-120123065D02*
X93524274Y-120170684D01*
X93524274Y-120170684D02*
X93619512Y-120170684D01*
X93619512Y-120170684D02*
X93762369Y-120123065D01*
X93762369Y-120123065D02*
X93857607Y-120027826D01*
X93857607Y-120027826D02*
X93905226Y-119932588D01*
X93905226Y-119932588D02*
X93952845Y-119742112D01*
X93952845Y-119742112D02*
X93952845Y-119599255D01*
X93952845Y-119599255D02*
X93905226Y-119408779D01*
X93905226Y-119408779D02*
X93857607Y-119313541D01*
X93857607Y-119313541D02*
X93762369Y-119218303D01*
X93762369Y-119218303D02*
X93619512Y-119170684D01*
X93619512Y-119170684D02*
X93524274Y-119170684D01*
X93524274Y-119170684D02*
X93381417Y-119218303D01*
X93381417Y-119218303D02*
X93333798Y-119265922D01*
X92429036Y-120170684D02*
X92905226Y-120170684D01*
X92905226Y-120170684D02*
X92905226Y-119170684D01*
X92095702Y-120170684D02*
X92095702Y-119170684D01*
X91524274Y-120170684D02*
X91952845Y-119599255D01*
X91524274Y-119170684D02*
X92095702Y-119742112D01*
X87820744Y-108544759D02*
X87820744Y-108211426D01*
X88344554Y-108211426D02*
X87344554Y-108211426D01*
X87344554Y-108211426D02*
X87344554Y-108687616D01*
X88344554Y-109068569D02*
X87677887Y-109068569D01*
X87868363Y-109068569D02*
X87773125Y-109116188D01*
X87773125Y-109116188D02*
X87725506Y-109163807D01*
X87725506Y-109163807D02*
X87677887Y-109259045D01*
X87677887Y-109259045D02*
X87677887Y-109354283D01*
X88344554Y-109830474D02*
X88296935Y-109735236D01*
X88296935Y-109735236D02*
X88249315Y-109687617D01*
X88249315Y-109687617D02*
X88154077Y-109639998D01*
X88154077Y-109639998D02*
X87868363Y-109639998D01*
X87868363Y-109639998D02*
X87773125Y-109687617D01*
X87773125Y-109687617D02*
X87725506Y-109735236D01*
X87725506Y-109735236D02*
X87677887Y-109830474D01*
X87677887Y-109830474D02*
X87677887Y-109973331D01*
X87677887Y-109973331D02*
X87725506Y-110068569D01*
X87725506Y-110068569D02*
X87773125Y-110116188D01*
X87773125Y-110116188D02*
X87868363Y-110163807D01*
X87868363Y-110163807D02*
X88154077Y-110163807D01*
X88154077Y-110163807D02*
X88249315Y-110116188D01*
X88249315Y-110116188D02*
X88296935Y-110068569D01*
X88296935Y-110068569D02*
X88344554Y-109973331D01*
X88344554Y-109973331D02*
X88344554Y-109830474D01*
X87677887Y-110592379D02*
X88344554Y-110592379D01*
X87773125Y-110592379D02*
X87725506Y-110639998D01*
X87725506Y-110639998D02*
X87677887Y-110735236D01*
X87677887Y-110735236D02*
X87677887Y-110878093D01*
X87677887Y-110878093D02*
X87725506Y-110973331D01*
X87725506Y-110973331D02*
X87820744Y-111020950D01*
X87820744Y-111020950D02*
X88344554Y-111020950D01*
X87677887Y-111354284D02*
X87677887Y-111735236D01*
X87344554Y-111497141D02*
X88201696Y-111497141D01*
X88201696Y-111497141D02*
X88296935Y-111544760D01*
X88296935Y-111544760D02*
X88344554Y-111639998D01*
X88344554Y-111639998D02*
X88344554Y-111735236D01*
X93619512Y-114138304D02*
X93714750Y-114090685D01*
X93714750Y-114090685D02*
X93857607Y-114090685D01*
X93857607Y-114090685D02*
X94000464Y-114138304D01*
X94000464Y-114138304D02*
X94095702Y-114233542D01*
X94095702Y-114233542D02*
X94143321Y-114328780D01*
X94143321Y-114328780D02*
X94190940Y-114519256D01*
X94190940Y-114519256D02*
X94190940Y-114662113D01*
X94190940Y-114662113D02*
X94143321Y-114852589D01*
X94143321Y-114852589D02*
X94095702Y-114947827D01*
X94095702Y-114947827D02*
X94000464Y-115043066D01*
X94000464Y-115043066D02*
X93857607Y-115090685D01*
X93857607Y-115090685D02*
X93762369Y-115090685D01*
X93762369Y-115090685D02*
X93619512Y-115043066D01*
X93619512Y-115043066D02*
X93571893Y-114995446D01*
X93571893Y-114995446D02*
X93571893Y-114662113D01*
X93571893Y-114662113D02*
X93762369Y-114662113D01*
X93143321Y-115090685D02*
X93143321Y-114090685D01*
X93143321Y-114090685D02*
X92571893Y-115090685D01*
X92571893Y-115090685D02*
X92571893Y-114090685D01*
X92095702Y-115090685D02*
X92095702Y-114090685D01*
X92095702Y-114090685D02*
X91857607Y-114090685D01*
X91857607Y-114090685D02*
X91714750Y-114138304D01*
X91714750Y-114138304D02*
X91619512Y-114233542D01*
X91619512Y-114233542D02*
X91571893Y-114328780D01*
X91571893Y-114328780D02*
X91524274Y-114519256D01*
X91524274Y-114519256D02*
X91524274Y-114662113D01*
X91524274Y-114662113D02*
X91571893Y-114852589D01*
X91571893Y-114852589D02*
X91619512Y-114947827D01*
X91619512Y-114947827D02*
X91714750Y-115043066D01*
X91714750Y-115043066D02*
X91857607Y-115090685D01*
X91857607Y-115090685D02*
X92095702Y-115090685D01*
D11*
X192647769Y-53243507D02*
X192647769Y-54314936D01*
X192647769Y-54314936D02*
X192719198Y-54529221D01*
X192719198Y-54529221D02*
X192862055Y-54672079D01*
X192862055Y-54672079D02*
X193076341Y-54743507D01*
X193076341Y-54743507D02*
X193219198Y-54743507D01*
X191219198Y-54743507D02*
X191933484Y-54743507D01*
X191933484Y-54743507D02*
X191933484Y-53243507D01*
X189862055Y-54600650D02*
X189933483Y-54672079D01*
X189933483Y-54672079D02*
X190147769Y-54743507D01*
X190147769Y-54743507D02*
X190290626Y-54743507D01*
X190290626Y-54743507D02*
X190504912Y-54672079D01*
X190504912Y-54672079D02*
X190647769Y-54529221D01*
X190647769Y-54529221D02*
X190719198Y-54386364D01*
X190719198Y-54386364D02*
X190790626Y-54100650D01*
X190790626Y-54100650D02*
X190790626Y-53886364D01*
X190790626Y-53886364D02*
X190719198Y-53600650D01*
X190719198Y-53600650D02*
X190647769Y-53457793D01*
X190647769Y-53457793D02*
X190504912Y-53314936D01*
X190504912Y-53314936D02*
X190290626Y-53243507D01*
X190290626Y-53243507D02*
X190147769Y-53243507D01*
X190147769Y-53243507D02*
X189933483Y-53314936D01*
X189933483Y-53314936D02*
X189862055Y-53386364D01*
X188790626Y-53243507D02*
X188790626Y-54314936D01*
X188790626Y-54314936D02*
X188862055Y-54529221D01*
X188862055Y-54529221D02*
X189004912Y-54672079D01*
X189004912Y-54672079D02*
X189219198Y-54743507D01*
X189219198Y-54743507D02*
X189362055Y-54743507D01*
X187362055Y-54743507D02*
X188076341Y-54743507D01*
X188076341Y-54743507D02*
X188076341Y-53243507D01*
X186004912Y-54600650D02*
X186076340Y-54672079D01*
X186076340Y-54672079D02*
X186290626Y-54743507D01*
X186290626Y-54743507D02*
X186433483Y-54743507D01*
X186433483Y-54743507D02*
X186647769Y-54672079D01*
X186647769Y-54672079D02*
X186790626Y-54529221D01*
X186790626Y-54529221D02*
X186862055Y-54386364D01*
X186862055Y-54386364D02*
X186933483Y-54100650D01*
X186933483Y-54100650D02*
X186933483Y-53886364D01*
X186933483Y-53886364D02*
X186862055Y-53600650D01*
X186862055Y-53600650D02*
X186790626Y-53457793D01*
X186790626Y-53457793D02*
X186647769Y-53314936D01*
X186647769Y-53314936D02*
X186433483Y-53243507D01*
X186433483Y-53243507D02*
X186290626Y-53243507D01*
X186290626Y-53243507D02*
X186076340Y-53314936D01*
X186076340Y-53314936D02*
X186004912Y-53386364D01*
X184933483Y-53243507D02*
X184933483Y-54314936D01*
X184933483Y-54314936D02*
X185004912Y-54529221D01*
X185004912Y-54529221D02*
X185147769Y-54672079D01*
X185147769Y-54672079D02*
X185362055Y-54743507D01*
X185362055Y-54743507D02*
X185504912Y-54743507D01*
X183504912Y-54743507D02*
X184219198Y-54743507D01*
X184219198Y-54743507D02*
X184219198Y-53243507D01*
X182147769Y-54600650D02*
X182219197Y-54672079D01*
X182219197Y-54672079D02*
X182433483Y-54743507D01*
X182433483Y-54743507D02*
X182576340Y-54743507D01*
X182576340Y-54743507D02*
X182790626Y-54672079D01*
X182790626Y-54672079D02*
X182933483Y-54529221D01*
X182933483Y-54529221D02*
X183004912Y-54386364D01*
X183004912Y-54386364D02*
X183076340Y-54100650D01*
X183076340Y-54100650D02*
X183076340Y-53886364D01*
X183076340Y-53886364D02*
X183004912Y-53600650D01*
X183004912Y-53600650D02*
X182933483Y-53457793D01*
X182933483Y-53457793D02*
X182790626Y-53314936D01*
X182790626Y-53314936D02*
X182576340Y-53243507D01*
X182576340Y-53243507D02*
X182433483Y-53243507D01*
X182433483Y-53243507D02*
X182219197Y-53314936D01*
X182219197Y-53314936D02*
X182147769Y-53386364D01*
X181076340Y-53243507D02*
X181076340Y-54314936D01*
X181076340Y-54314936D02*
X181147769Y-54529221D01*
X181147769Y-54529221D02*
X181290626Y-54672079D01*
X181290626Y-54672079D02*
X181504912Y-54743507D01*
X181504912Y-54743507D02*
X181647769Y-54743507D01*
X179647769Y-54743507D02*
X180362055Y-54743507D01*
X180362055Y-54743507D02*
X180362055Y-53243507D01*
X178290626Y-54600650D02*
X178362054Y-54672079D01*
X178362054Y-54672079D02*
X178576340Y-54743507D01*
X178576340Y-54743507D02*
X178719197Y-54743507D01*
X178719197Y-54743507D02*
X178933483Y-54672079D01*
X178933483Y-54672079D02*
X179076340Y-54529221D01*
X179076340Y-54529221D02*
X179147769Y-54386364D01*
X179147769Y-54386364D02*
X179219197Y-54100650D01*
X179219197Y-54100650D02*
X179219197Y-53886364D01*
X179219197Y-53886364D02*
X179147769Y-53600650D01*
X179147769Y-53600650D02*
X179076340Y-53457793D01*
X179076340Y-53457793D02*
X178933483Y-53314936D01*
X178933483Y-53314936D02*
X178719197Y-53243507D01*
X178719197Y-53243507D02*
X178576340Y-53243507D01*
X178576340Y-53243507D02*
X178362054Y-53314936D01*
X178362054Y-53314936D02*
X178290626Y-53386364D01*
D10*
X93905226Y-163064969D02*
X93429036Y-163064969D01*
X94000464Y-163350684D02*
X93667131Y-162350684D01*
X93667131Y-162350684D02*
X93333798Y-163350684D01*
X93048083Y-162445922D02*
X93000464Y-162398303D01*
X93000464Y-162398303D02*
X92905226Y-162350684D01*
X92905226Y-162350684D02*
X92667131Y-162350684D01*
X92667131Y-162350684D02*
X92571893Y-162398303D01*
X92571893Y-162398303D02*
X92524274Y-162445922D01*
X92524274Y-162445922D02*
X92476655Y-162541160D01*
X92476655Y-162541160D02*
X92476655Y-162636398D01*
X92476655Y-162636398D02*
X92524274Y-162779255D01*
X92524274Y-162779255D02*
X93095702Y-163350684D01*
X93095702Y-163350684D02*
X92476655Y-163350684D01*
X91524274Y-163350684D02*
X92095702Y-163350684D01*
X91809988Y-163350684D02*
X91809988Y-162350684D01*
X91809988Y-162350684D02*
X91905226Y-162493541D01*
X91905226Y-162493541D02*
X92000464Y-162588779D01*
X92000464Y-162588779D02*
X92095702Y-162636398D01*
X94619511Y-131749850D02*
X94286178Y-132749850D01*
X94286178Y-132749850D02*
X93952845Y-131749850D01*
X93619511Y-132749850D02*
X93619511Y-131749850D01*
X92571893Y-132749850D02*
X92905226Y-132273659D01*
X93143321Y-132749850D02*
X93143321Y-131749850D01*
X93143321Y-131749850D02*
X92762369Y-131749850D01*
X92762369Y-131749850D02*
X92667131Y-131797469D01*
X92667131Y-131797469D02*
X92619512Y-131845088D01*
X92619512Y-131845088D02*
X92571893Y-131940326D01*
X92571893Y-131940326D02*
X92571893Y-132083183D01*
X92571893Y-132083183D02*
X92619512Y-132178421D01*
X92619512Y-132178421D02*
X92667131Y-132226040D01*
X92667131Y-132226040D02*
X92762369Y-132273659D01*
X92762369Y-132273659D02*
X93143321Y-132273659D01*
X91476655Y-132845088D02*
X91571893Y-132797469D01*
X91571893Y-132797469D02*
X91667131Y-132702231D01*
X91667131Y-132702231D02*
X91809988Y-132559373D01*
X91809988Y-132559373D02*
X91905226Y-132511754D01*
X91905226Y-132511754D02*
X92000464Y-132511754D01*
X91952845Y-132749850D02*
X92048083Y-132702231D01*
X92048083Y-132702231D02*
X92143321Y-132606992D01*
X92143321Y-132606992D02*
X92190940Y-132416516D01*
X92190940Y-132416516D02*
X92190940Y-132083183D01*
X92190940Y-132083183D02*
X92143321Y-131892707D01*
X92143321Y-131892707D02*
X92048083Y-131797469D01*
X92048083Y-131797469D02*
X91952845Y-131749850D01*
X91952845Y-131749850D02*
X91762369Y-131749850D01*
X91762369Y-131749850D02*
X91667131Y-131797469D01*
X91667131Y-131797469D02*
X91571893Y-131892707D01*
X91571893Y-131892707D02*
X91524274Y-132083183D01*
X91524274Y-132083183D02*
X91524274Y-132416516D01*
X91524274Y-132416516D02*
X91571893Y-132606992D01*
X91571893Y-132606992D02*
X91667131Y-132702231D01*
X91667131Y-132702231D02*
X91762369Y-132749850D01*
X91762369Y-132749850D02*
X91952845Y-132749850D01*
X94614750Y-131472231D02*
X91433798Y-131472231D01*
X90338000Y-195209801D02*
X90385619Y-195352658D01*
X90385619Y-195352658D02*
X90433238Y-195400277D01*
X90433238Y-195400277D02*
X90528476Y-195447896D01*
X90528476Y-195447896D02*
X90671333Y-195447896D01*
X90671333Y-195447896D02*
X90766571Y-195400277D01*
X90766571Y-195400277D02*
X90814191Y-195352658D01*
X90814191Y-195352658D02*
X90861810Y-195257420D01*
X90861810Y-195257420D02*
X90861810Y-194876468D01*
X90861810Y-194876468D02*
X89861810Y-194876468D01*
X89861810Y-194876468D02*
X89861810Y-195209801D01*
X89861810Y-195209801D02*
X89909429Y-195305039D01*
X89909429Y-195305039D02*
X89957048Y-195352658D01*
X89957048Y-195352658D02*
X90052286Y-195400277D01*
X90052286Y-195400277D02*
X90147524Y-195400277D01*
X90147524Y-195400277D02*
X90242762Y-195352658D01*
X90242762Y-195352658D02*
X90290381Y-195305039D01*
X90290381Y-195305039D02*
X90338000Y-195209801D01*
X90338000Y-195209801D02*
X90338000Y-194876468D01*
X90861810Y-196305039D02*
X90338000Y-196305039D01*
X90338000Y-196305039D02*
X90242762Y-196257420D01*
X90242762Y-196257420D02*
X90195143Y-196162182D01*
X90195143Y-196162182D02*
X90195143Y-195971706D01*
X90195143Y-195971706D02*
X90242762Y-195876468D01*
X90814191Y-196305039D02*
X90861810Y-196209801D01*
X90861810Y-196209801D02*
X90861810Y-195971706D01*
X90861810Y-195971706D02*
X90814191Y-195876468D01*
X90814191Y-195876468D02*
X90718952Y-195828849D01*
X90718952Y-195828849D02*
X90623714Y-195828849D01*
X90623714Y-195828849D02*
X90528476Y-195876468D01*
X90528476Y-195876468D02*
X90480857Y-195971706D01*
X90480857Y-195971706D02*
X90480857Y-196209801D01*
X90480857Y-196209801D02*
X90433238Y-196305039D01*
X90814191Y-197209801D02*
X90861810Y-197114563D01*
X90861810Y-197114563D02*
X90861810Y-196924087D01*
X90861810Y-196924087D02*
X90814191Y-196828849D01*
X90814191Y-196828849D02*
X90766571Y-196781230D01*
X90766571Y-196781230D02*
X90671333Y-196733611D01*
X90671333Y-196733611D02*
X90385619Y-196733611D01*
X90385619Y-196733611D02*
X90290381Y-196781230D01*
X90290381Y-196781230D02*
X90242762Y-196828849D01*
X90242762Y-196828849D02*
X90195143Y-196924087D01*
X90195143Y-196924087D02*
X90195143Y-197114563D01*
X90195143Y-197114563D02*
X90242762Y-197209801D01*
X90861810Y-197638373D02*
X89861810Y-197638373D01*
X90480857Y-197733611D02*
X90861810Y-198019325D01*
X90195143Y-198019325D02*
X90576095Y-197638373D01*
X92952845Y-183384969D02*
X92476655Y-183384969D01*
X93048083Y-183670684D02*
X92714750Y-182670684D01*
X92714750Y-182670684D02*
X92381417Y-183670684D01*
X91571893Y-182670684D02*
X92048083Y-182670684D01*
X92048083Y-182670684D02*
X92095702Y-183146874D01*
X92095702Y-183146874D02*
X92048083Y-183099255D01*
X92048083Y-183099255D02*
X91952845Y-183051636D01*
X91952845Y-183051636D02*
X91714750Y-183051636D01*
X91714750Y-183051636D02*
X91619512Y-183099255D01*
X91619512Y-183099255D02*
X91571893Y-183146874D01*
X91571893Y-183146874D02*
X91524274Y-183242112D01*
X91524274Y-183242112D02*
X91524274Y-183480207D01*
X91524274Y-183480207D02*
X91571893Y-183575445D01*
X91571893Y-183575445D02*
X91619512Y-183623065D01*
X91619512Y-183623065D02*
X91714750Y-183670684D01*
X91714750Y-183670684D02*
X91952845Y-183670684D01*
X91952845Y-183670684D02*
X92048083Y-183623065D01*
X92048083Y-183623065D02*
X92095702Y-183575445D01*
X93905226Y-171179012D02*
X93429036Y-171179012D01*
X94000464Y-171464727D02*
X93667131Y-170464727D01*
X93667131Y-170464727D02*
X93333798Y-171464727D01*
X92476655Y-171464727D02*
X93048083Y-171464727D01*
X92762369Y-171464727D02*
X92762369Y-170464727D01*
X92762369Y-170464727D02*
X92857607Y-170607584D01*
X92857607Y-170607584D02*
X92952845Y-170702822D01*
X92952845Y-170702822D02*
X93048083Y-170750441D01*
X91571893Y-170464727D02*
X92048083Y-170464727D01*
X92048083Y-170464727D02*
X92095702Y-170940917D01*
X92095702Y-170940917D02*
X92048083Y-170893298D01*
X92048083Y-170893298D02*
X91952845Y-170845679D01*
X91952845Y-170845679D02*
X91714750Y-170845679D01*
X91714750Y-170845679D02*
X91619512Y-170893298D01*
X91619512Y-170893298D02*
X91571893Y-170940917D01*
X91571893Y-170940917D02*
X91524274Y-171036155D01*
X91524274Y-171036155D02*
X91524274Y-171274250D01*
X91524274Y-171274250D02*
X91571893Y-171369488D01*
X91571893Y-171369488D02*
X91619512Y-171417108D01*
X91619512Y-171417108D02*
X91714750Y-171464727D01*
X91714750Y-171464727D02*
X91952845Y-171464727D01*
X91952845Y-171464727D02*
X92048083Y-171417108D01*
X92048083Y-171417108D02*
X92095702Y-171369488D01*
X95095703Y-122710684D02*
X95571893Y-122710684D01*
X95571893Y-122710684D02*
X95571893Y-121710684D01*
X94809988Y-122424969D02*
X94333798Y-122424969D01*
X94905226Y-122710684D02*
X94571893Y-121710684D01*
X94571893Y-121710684D02*
X94238560Y-122710684D01*
X94048083Y-121710684D02*
X93476655Y-121710684D01*
X93762369Y-122710684D02*
X93762369Y-121710684D01*
X92571893Y-122615445D02*
X92619512Y-122663065D01*
X92619512Y-122663065D02*
X92762369Y-122710684D01*
X92762369Y-122710684D02*
X92857607Y-122710684D01*
X92857607Y-122710684D02*
X93000464Y-122663065D01*
X93000464Y-122663065D02*
X93095702Y-122567826D01*
X93095702Y-122567826D02*
X93143321Y-122472588D01*
X93143321Y-122472588D02*
X93190940Y-122282112D01*
X93190940Y-122282112D02*
X93190940Y-122139255D01*
X93190940Y-122139255D02*
X93143321Y-121948779D01*
X93143321Y-121948779D02*
X93095702Y-121853541D01*
X93095702Y-121853541D02*
X93000464Y-121758303D01*
X93000464Y-121758303D02*
X92857607Y-121710684D01*
X92857607Y-121710684D02*
X92762369Y-121710684D01*
X92762369Y-121710684D02*
X92619512Y-121758303D01*
X92619512Y-121758303D02*
X92571893Y-121805922D01*
X92143321Y-122710684D02*
X92143321Y-121710684D01*
X92143321Y-122186874D02*
X91571893Y-122186874D01*
X91571893Y-122710684D02*
X91571893Y-121710684D01*
X92952845Y-188464969D02*
X92476655Y-188464969D01*
X93048083Y-188750684D02*
X92714750Y-187750684D01*
X92714750Y-187750684D02*
X92381417Y-188750684D01*
X91524274Y-188750684D02*
X92095702Y-188750684D01*
X91809988Y-188750684D02*
X91809988Y-187750684D01*
X91809988Y-187750684D02*
X91905226Y-187893541D01*
X91905226Y-187893541D02*
X92000464Y-187988779D01*
X92000464Y-187988779D02*
X92095702Y-188036398D01*
X93905226Y-127743065D02*
X93762369Y-127790684D01*
X93762369Y-127790684D02*
X93524274Y-127790684D01*
X93524274Y-127790684D02*
X93429036Y-127743065D01*
X93429036Y-127743065D02*
X93381417Y-127695445D01*
X93381417Y-127695445D02*
X93333798Y-127600207D01*
X93333798Y-127600207D02*
X93333798Y-127504969D01*
X93333798Y-127504969D02*
X93381417Y-127409731D01*
X93381417Y-127409731D02*
X93429036Y-127362112D01*
X93429036Y-127362112D02*
X93524274Y-127314493D01*
X93524274Y-127314493D02*
X93714750Y-127266874D01*
X93714750Y-127266874D02*
X93809988Y-127219255D01*
X93809988Y-127219255D02*
X93857607Y-127171636D01*
X93857607Y-127171636D02*
X93905226Y-127076398D01*
X93905226Y-127076398D02*
X93905226Y-126981160D01*
X93905226Y-126981160D02*
X93857607Y-126885922D01*
X93857607Y-126885922D02*
X93809988Y-126838303D01*
X93809988Y-126838303D02*
X93714750Y-126790684D01*
X93714750Y-126790684D02*
X93476655Y-126790684D01*
X93476655Y-126790684D02*
X93333798Y-126838303D01*
X92333798Y-127695445D02*
X92381417Y-127743065D01*
X92381417Y-127743065D02*
X92524274Y-127790684D01*
X92524274Y-127790684D02*
X92619512Y-127790684D01*
X92619512Y-127790684D02*
X92762369Y-127743065D01*
X92762369Y-127743065D02*
X92857607Y-127647826D01*
X92857607Y-127647826D02*
X92905226Y-127552588D01*
X92905226Y-127552588D02*
X92952845Y-127362112D01*
X92952845Y-127362112D02*
X92952845Y-127219255D01*
X92952845Y-127219255D02*
X92905226Y-127028779D01*
X92905226Y-127028779D02*
X92857607Y-126933541D01*
X92857607Y-126933541D02*
X92762369Y-126838303D01*
X92762369Y-126838303D02*
X92619512Y-126790684D01*
X92619512Y-126790684D02*
X92524274Y-126790684D01*
X92524274Y-126790684D02*
X92381417Y-126838303D01*
X92381417Y-126838303D02*
X92333798Y-126885922D01*
X91429036Y-127790684D02*
X91905226Y-127790684D01*
X91905226Y-127790684D02*
X91905226Y-126790684D01*
X93905226Y-168144969D02*
X93429036Y-168144969D01*
X94000464Y-168430684D02*
X93667131Y-167430684D01*
X93667131Y-167430684D02*
X93333798Y-168430684D01*
X92476655Y-168430684D02*
X93048083Y-168430684D01*
X92762369Y-168430684D02*
X92762369Y-167430684D01*
X92762369Y-167430684D02*
X92857607Y-167573541D01*
X92857607Y-167573541D02*
X92952845Y-167668779D01*
X92952845Y-167668779D02*
X93048083Y-167716398D01*
X92143321Y-167430684D02*
X91476655Y-167430684D01*
X91476655Y-167430684D02*
X91905226Y-168430684D01*
X92667131Y-142506874D02*
X92524274Y-142554493D01*
X92524274Y-142554493D02*
X92476655Y-142602112D01*
X92476655Y-142602112D02*
X92429036Y-142697350D01*
X92429036Y-142697350D02*
X92429036Y-142840207D01*
X92429036Y-142840207D02*
X92476655Y-142935445D01*
X92476655Y-142935445D02*
X92524274Y-142983065D01*
X92524274Y-142983065D02*
X92619512Y-143030684D01*
X92619512Y-143030684D02*
X93000464Y-143030684D01*
X93000464Y-143030684D02*
X93000464Y-142030684D01*
X93000464Y-142030684D02*
X92667131Y-142030684D01*
X92667131Y-142030684D02*
X92571893Y-142078303D01*
X92571893Y-142078303D02*
X92524274Y-142125922D01*
X92524274Y-142125922D02*
X92476655Y-142221160D01*
X92476655Y-142221160D02*
X92476655Y-142316398D01*
X92476655Y-142316398D02*
X92524274Y-142411636D01*
X92524274Y-142411636D02*
X92571893Y-142459255D01*
X92571893Y-142459255D02*
X92667131Y-142506874D01*
X92667131Y-142506874D02*
X93000464Y-142506874D01*
X92000464Y-142506874D02*
X91667131Y-142506874D01*
X91524274Y-143030684D02*
X92000464Y-143030684D01*
X92000464Y-143030684D02*
X92000464Y-142030684D01*
X92000464Y-142030684D02*
X91524274Y-142030684D01*
X93619512Y-192878304D02*
X93714750Y-192830685D01*
X93714750Y-192830685D02*
X93857607Y-192830685D01*
X93857607Y-192830685D02*
X94000464Y-192878304D01*
X94000464Y-192878304D02*
X94095702Y-192973542D01*
X94095702Y-192973542D02*
X94143321Y-193068780D01*
X94143321Y-193068780D02*
X94190940Y-193259256D01*
X94190940Y-193259256D02*
X94190940Y-193402113D01*
X94190940Y-193402113D02*
X94143321Y-193592589D01*
X94143321Y-193592589D02*
X94095702Y-193687827D01*
X94095702Y-193687827D02*
X94000464Y-193783066D01*
X94000464Y-193783066D02*
X93857607Y-193830685D01*
X93857607Y-193830685D02*
X93762369Y-193830685D01*
X93762369Y-193830685D02*
X93619512Y-193783066D01*
X93619512Y-193783066D02*
X93571893Y-193735446D01*
X93571893Y-193735446D02*
X93571893Y-193402113D01*
X93571893Y-193402113D02*
X93762369Y-193402113D01*
X93143321Y-193830685D02*
X93143321Y-192830685D01*
X93143321Y-192830685D02*
X92571893Y-193830685D01*
X92571893Y-193830685D02*
X92571893Y-192830685D01*
X92095702Y-193830685D02*
X92095702Y-192830685D01*
X92095702Y-192830685D02*
X91857607Y-192830685D01*
X91857607Y-192830685D02*
X91714750Y-192878304D01*
X91714750Y-192878304D02*
X91619512Y-192973542D01*
X91619512Y-192973542D02*
X91571893Y-193068780D01*
X91571893Y-193068780D02*
X91524274Y-193259256D01*
X91524274Y-193259256D02*
X91524274Y-193402113D01*
X91524274Y-193402113D02*
X91571893Y-193592589D01*
X91571893Y-193592589D02*
X91619512Y-193687827D01*
X91619512Y-193687827D02*
X91714750Y-193783066D01*
X91714750Y-193783066D02*
X91857607Y-193830685D01*
X91857607Y-193830685D02*
X92095702Y-193830685D01*
X93619511Y-135289852D02*
X93619511Y-134289852D01*
X92571893Y-135289852D02*
X92905226Y-134813661D01*
X93143321Y-135289852D02*
X93143321Y-134289852D01*
X93143321Y-134289852D02*
X92762369Y-134289852D01*
X92762369Y-134289852D02*
X92667131Y-134337471D01*
X92667131Y-134337471D02*
X92619512Y-134385090D01*
X92619512Y-134385090D02*
X92571893Y-134480328D01*
X92571893Y-134480328D02*
X92571893Y-134623185D01*
X92571893Y-134623185D02*
X92619512Y-134718423D01*
X92619512Y-134718423D02*
X92667131Y-134766042D01*
X92667131Y-134766042D02*
X92762369Y-134813661D01*
X92762369Y-134813661D02*
X93143321Y-134813661D01*
X91476655Y-135385090D02*
X91571893Y-135337471D01*
X91571893Y-135337471D02*
X91667131Y-135242233D01*
X91667131Y-135242233D02*
X91809988Y-135099375D01*
X91809988Y-135099375D02*
X91905226Y-135051756D01*
X91905226Y-135051756D02*
X92000464Y-135051756D01*
X91952845Y-135289852D02*
X92048083Y-135242233D01*
X92048083Y-135242233D02*
X92143321Y-135146994D01*
X92143321Y-135146994D02*
X92190940Y-134956518D01*
X92190940Y-134956518D02*
X92190940Y-134623185D01*
X92190940Y-134623185D02*
X92143321Y-134432709D01*
X92143321Y-134432709D02*
X92048083Y-134337471D01*
X92048083Y-134337471D02*
X91952845Y-134289852D01*
X91952845Y-134289852D02*
X91762369Y-134289852D01*
X91762369Y-134289852D02*
X91667131Y-134337471D01*
X91667131Y-134337471D02*
X91571893Y-134432709D01*
X91571893Y-134432709D02*
X91524274Y-134623185D01*
X91524274Y-134623185D02*
X91524274Y-134956518D01*
X91524274Y-134956518D02*
X91571893Y-135146994D01*
X91571893Y-135146994D02*
X91667131Y-135242233D01*
X91667131Y-135242233D02*
X91762369Y-135289852D01*
X91762369Y-135289852D02*
X91952845Y-135289852D01*
X93757607Y-134012233D02*
X91433798Y-134012233D01*
X93905226Y-173224969D02*
X93429036Y-173224969D01*
X94000464Y-173510684D02*
X93667131Y-172510684D01*
X93667131Y-172510684D02*
X93333798Y-173510684D01*
X92476655Y-173510684D02*
X93048083Y-173510684D01*
X92762369Y-173510684D02*
X92762369Y-172510684D01*
X92762369Y-172510684D02*
X92857607Y-172653541D01*
X92857607Y-172653541D02*
X92952845Y-172748779D01*
X92952845Y-172748779D02*
X93048083Y-172796398D01*
X92143321Y-172510684D02*
X91524274Y-172510684D01*
X91524274Y-172510684D02*
X91857607Y-172891636D01*
X91857607Y-172891636D02*
X91714750Y-172891636D01*
X91714750Y-172891636D02*
X91619512Y-172939255D01*
X91619512Y-172939255D02*
X91571893Y-172986874D01*
X91571893Y-172986874D02*
X91524274Y-173082112D01*
X91524274Y-173082112D02*
X91524274Y-173320207D01*
X91524274Y-173320207D02*
X91571893Y-173415445D01*
X91571893Y-173415445D02*
X91619512Y-173463065D01*
X91619512Y-173463065D02*
X91714750Y-173510684D01*
X91714750Y-173510684D02*
X92000464Y-173510684D01*
X92000464Y-173510684D02*
X92095702Y-173463065D01*
X92095702Y-173463065D02*
X92143321Y-173415445D01*
X93429036Y-140274612D02*
X93476655Y-140322232D01*
X93476655Y-140322232D02*
X93619512Y-140369851D01*
X93619512Y-140369851D02*
X93714750Y-140369851D01*
X93714750Y-140369851D02*
X93857607Y-140322232D01*
X93857607Y-140322232D02*
X93952845Y-140226993D01*
X93952845Y-140226993D02*
X94000464Y-140131755D01*
X94000464Y-140131755D02*
X94048083Y-139941279D01*
X94048083Y-139941279D02*
X94048083Y-139798422D01*
X94048083Y-139798422D02*
X94000464Y-139607946D01*
X94000464Y-139607946D02*
X93952845Y-139512708D01*
X93952845Y-139512708D02*
X93857607Y-139417470D01*
X93857607Y-139417470D02*
X93714750Y-139369851D01*
X93714750Y-139369851D02*
X93619512Y-139369851D01*
X93619512Y-139369851D02*
X93476655Y-139417470D01*
X93476655Y-139417470D02*
X93429036Y-139465089D01*
X93048083Y-140322232D02*
X92905226Y-140369851D01*
X92905226Y-140369851D02*
X92667131Y-140369851D01*
X92667131Y-140369851D02*
X92571893Y-140322232D01*
X92571893Y-140322232D02*
X92524274Y-140274612D01*
X92524274Y-140274612D02*
X92476655Y-140179374D01*
X92476655Y-140179374D02*
X92476655Y-140084136D01*
X92476655Y-140084136D02*
X92524274Y-139988898D01*
X92524274Y-139988898D02*
X92571893Y-139941279D01*
X92571893Y-139941279D02*
X92667131Y-139893660D01*
X92667131Y-139893660D02*
X92857607Y-139846041D01*
X92857607Y-139846041D02*
X92952845Y-139798422D01*
X92952845Y-139798422D02*
X93000464Y-139750803D01*
X93000464Y-139750803D02*
X93048083Y-139655565D01*
X93048083Y-139655565D02*
X93048083Y-139560327D01*
X93048083Y-139560327D02*
X93000464Y-139465089D01*
X93000464Y-139465089D02*
X92952845Y-139417470D01*
X92952845Y-139417470D02*
X92857607Y-139369851D01*
X92857607Y-139369851D02*
X92619512Y-139369851D01*
X92619512Y-139369851D02*
X92476655Y-139417470D01*
X94138560Y-139092232D02*
X92386179Y-139092232D01*
X92143321Y-139369851D02*
X91476655Y-139369851D01*
X91476655Y-139369851D02*
X91905226Y-140369851D01*
X94476655Y-145449852D02*
X94809988Y-144973661D01*
X95048083Y-145449852D02*
X95048083Y-144449852D01*
X95048083Y-144449852D02*
X94667131Y-144449852D01*
X94667131Y-144449852D02*
X94571893Y-144497471D01*
X94571893Y-144497471D02*
X94524274Y-144545090D01*
X94524274Y-144545090D02*
X94476655Y-144640328D01*
X94476655Y-144640328D02*
X94476655Y-144783185D01*
X94476655Y-144783185D02*
X94524274Y-144878423D01*
X94524274Y-144878423D02*
X94571893Y-144926042D01*
X94571893Y-144926042D02*
X94667131Y-144973661D01*
X94667131Y-144973661D02*
X95048083Y-144973661D01*
X94095702Y-145164137D02*
X93619512Y-145164137D01*
X94190940Y-145449852D02*
X93857607Y-144449852D01*
X93857607Y-144449852D02*
X93524274Y-145449852D01*
X93190940Y-145449852D02*
X93190940Y-144449852D01*
X93190940Y-144449852D02*
X92857607Y-145164137D01*
X92857607Y-145164137D02*
X92524274Y-144449852D01*
X92524274Y-144449852D02*
X92524274Y-145449852D01*
X91524274Y-145449852D02*
X92095702Y-145449852D01*
X91809988Y-145449852D02*
X91809988Y-144449852D01*
X91809988Y-144449852D02*
X91905226Y-144592709D01*
X91905226Y-144592709D02*
X92000464Y-144687947D01*
X92000464Y-144687947D02*
X92095702Y-144735566D01*
X95186179Y-144172233D02*
X91433798Y-144172233D01*
X93048083Y-153190684D02*
X93048083Y-152190684D01*
X93048083Y-152190684D02*
X92809988Y-152190684D01*
X92809988Y-152190684D02*
X92667131Y-152238303D01*
X92667131Y-152238303D02*
X92571893Y-152333541D01*
X92571893Y-152333541D02*
X92524274Y-152428779D01*
X92524274Y-152428779D02*
X92476655Y-152619255D01*
X92476655Y-152619255D02*
X92476655Y-152762112D01*
X92476655Y-152762112D02*
X92524274Y-152952588D01*
X92524274Y-152952588D02*
X92571893Y-153047826D01*
X92571893Y-153047826D02*
X92667131Y-153143065D01*
X92667131Y-153143065D02*
X92809988Y-153190684D01*
X92809988Y-153190684D02*
X93048083Y-153190684D01*
X91571893Y-152190684D02*
X92048083Y-152190684D01*
X92048083Y-152190684D02*
X92095702Y-152666874D01*
X92095702Y-152666874D02*
X92048083Y-152619255D01*
X92048083Y-152619255D02*
X91952845Y-152571636D01*
X91952845Y-152571636D02*
X91714750Y-152571636D01*
X91714750Y-152571636D02*
X91619512Y-152619255D01*
X91619512Y-152619255D02*
X91571893Y-152666874D01*
X91571893Y-152666874D02*
X91524274Y-152762112D01*
X91524274Y-152762112D02*
X91524274Y-153000207D01*
X91524274Y-153000207D02*
X91571893Y-153095445D01*
X91571893Y-153095445D02*
X91619512Y-153143065D01*
X91619512Y-153143065D02*
X91714750Y-153190684D01*
X91714750Y-153190684D02*
X91952845Y-153190684D01*
X91952845Y-153190684D02*
X92048083Y-153143065D01*
X92048083Y-153143065D02*
X92095702Y-153095445D01*
X90360744Y-108830474D02*
X90408363Y-108973331D01*
X90408363Y-108973331D02*
X90455982Y-109020950D01*
X90455982Y-109020950D02*
X90551220Y-109068569D01*
X90551220Y-109068569D02*
X90694077Y-109068569D01*
X90694077Y-109068569D02*
X90789315Y-109020950D01*
X90789315Y-109020950D02*
X90836935Y-108973331D01*
X90836935Y-108973331D02*
X90884554Y-108878093D01*
X90884554Y-108878093D02*
X90884554Y-108497141D01*
X90884554Y-108497141D02*
X89884554Y-108497141D01*
X89884554Y-108497141D02*
X89884554Y-108830474D01*
X89884554Y-108830474D02*
X89932173Y-108925712D01*
X89932173Y-108925712D02*
X89979792Y-108973331D01*
X89979792Y-108973331D02*
X90075030Y-109020950D01*
X90075030Y-109020950D02*
X90170268Y-109020950D01*
X90170268Y-109020950D02*
X90265506Y-108973331D01*
X90265506Y-108973331D02*
X90313125Y-108925712D01*
X90313125Y-108925712D02*
X90360744Y-108830474D01*
X90360744Y-108830474D02*
X90360744Y-108497141D01*
X90884554Y-109925712D02*
X90360744Y-109925712D01*
X90360744Y-109925712D02*
X90265506Y-109878093D01*
X90265506Y-109878093D02*
X90217887Y-109782855D01*
X90217887Y-109782855D02*
X90217887Y-109592379D01*
X90217887Y-109592379D02*
X90265506Y-109497141D01*
X90836935Y-109925712D02*
X90884554Y-109830474D01*
X90884554Y-109830474D02*
X90884554Y-109592379D01*
X90884554Y-109592379D02*
X90836935Y-109497141D01*
X90836935Y-109497141D02*
X90741696Y-109449522D01*
X90741696Y-109449522D02*
X90646458Y-109449522D01*
X90646458Y-109449522D02*
X90551220Y-109497141D01*
X90551220Y-109497141D02*
X90503601Y-109592379D01*
X90503601Y-109592379D02*
X90503601Y-109830474D01*
X90503601Y-109830474D02*
X90455982Y-109925712D01*
X90836935Y-110830474D02*
X90884554Y-110735236D01*
X90884554Y-110735236D02*
X90884554Y-110544760D01*
X90884554Y-110544760D02*
X90836935Y-110449522D01*
X90836935Y-110449522D02*
X90789315Y-110401903D01*
X90789315Y-110401903D02*
X90694077Y-110354284D01*
X90694077Y-110354284D02*
X90408363Y-110354284D01*
X90408363Y-110354284D02*
X90313125Y-110401903D01*
X90313125Y-110401903D02*
X90265506Y-110449522D01*
X90265506Y-110449522D02*
X90217887Y-110544760D01*
X90217887Y-110544760D02*
X90217887Y-110735236D01*
X90217887Y-110735236D02*
X90265506Y-110830474D01*
X90884554Y-111259046D02*
X89884554Y-111259046D01*
X90503601Y-111354284D02*
X90884554Y-111639998D01*
X90217887Y-111639998D02*
X90598839Y-111259046D01*
X93905226Y-165604969D02*
X93429036Y-165604969D01*
X94000464Y-165890684D02*
X93667131Y-164890684D01*
X93667131Y-164890684D02*
X93333798Y-165890684D01*
X92476655Y-165890684D02*
X93048083Y-165890684D01*
X92762369Y-165890684D02*
X92762369Y-164890684D01*
X92762369Y-164890684D02*
X92857607Y-165033541D01*
X92857607Y-165033541D02*
X92952845Y-165128779D01*
X92952845Y-165128779D02*
X93048083Y-165176398D01*
X92000464Y-165890684D02*
X91809988Y-165890684D01*
X91809988Y-165890684D02*
X91714750Y-165843065D01*
X91714750Y-165843065D02*
X91667131Y-165795445D01*
X91667131Y-165795445D02*
X91571893Y-165652588D01*
X91571893Y-165652588D02*
X91524274Y-165462112D01*
X91524274Y-165462112D02*
X91524274Y-165081160D01*
X91524274Y-165081160D02*
X91571893Y-164985922D01*
X91571893Y-164985922D02*
X91619512Y-164938303D01*
X91619512Y-164938303D02*
X91714750Y-164890684D01*
X91714750Y-164890684D02*
X91905226Y-164890684D01*
X91905226Y-164890684D02*
X92000464Y-164938303D01*
X92000464Y-164938303D02*
X92048083Y-164985922D01*
X92048083Y-164985922D02*
X92095702Y-165081160D01*
X92095702Y-165081160D02*
X92095702Y-165319255D01*
X92095702Y-165319255D02*
X92048083Y-165414493D01*
X92048083Y-165414493D02*
X92000464Y-165462112D01*
X92000464Y-165462112D02*
X91905226Y-165509731D01*
X91905226Y-165509731D02*
X91714750Y-165509731D01*
X91714750Y-165509731D02*
X91619512Y-165462112D01*
X91619512Y-165462112D02*
X91571893Y-165414493D01*
X91571893Y-165414493D02*
X91524274Y-165319255D01*
X93619512Y-149698303D02*
X93714750Y-149650684D01*
X93714750Y-149650684D02*
X93857607Y-149650684D01*
X93857607Y-149650684D02*
X94000464Y-149698303D01*
X94000464Y-149698303D02*
X94095702Y-149793541D01*
X94095702Y-149793541D02*
X94143321Y-149888779D01*
X94143321Y-149888779D02*
X94190940Y-150079255D01*
X94190940Y-150079255D02*
X94190940Y-150222112D01*
X94190940Y-150222112D02*
X94143321Y-150412588D01*
X94143321Y-150412588D02*
X94095702Y-150507826D01*
X94095702Y-150507826D02*
X94000464Y-150603065D01*
X94000464Y-150603065D02*
X93857607Y-150650684D01*
X93857607Y-150650684D02*
X93762369Y-150650684D01*
X93762369Y-150650684D02*
X93619512Y-150603065D01*
X93619512Y-150603065D02*
X93571893Y-150555445D01*
X93571893Y-150555445D02*
X93571893Y-150222112D01*
X93571893Y-150222112D02*
X93762369Y-150222112D01*
X93143321Y-150650684D02*
X93143321Y-149650684D01*
X93143321Y-149650684D02*
X92571893Y-150650684D01*
X92571893Y-150650684D02*
X92571893Y-149650684D01*
X92095702Y-150650684D02*
X92095702Y-149650684D01*
X92095702Y-149650684D02*
X91857607Y-149650684D01*
X91857607Y-149650684D02*
X91714750Y-149698303D01*
X91714750Y-149698303D02*
X91619512Y-149793541D01*
X91619512Y-149793541D02*
X91571893Y-149888779D01*
X91571893Y-149888779D02*
X91524274Y-150079255D01*
X91524274Y-150079255D02*
X91524274Y-150222112D01*
X91524274Y-150222112D02*
X91571893Y-150412588D01*
X91571893Y-150412588D02*
X91619512Y-150507826D01*
X91619512Y-150507826D02*
X91714750Y-150603065D01*
X91714750Y-150603065D02*
X91857607Y-150650684D01*
X91857607Y-150650684D02*
X92095702Y-150650684D01*
X93048083Y-155730684D02*
X93048083Y-154730684D01*
X93048083Y-154730684D02*
X92809988Y-154730684D01*
X92809988Y-154730684D02*
X92667131Y-154778303D01*
X92667131Y-154778303D02*
X92571893Y-154873541D01*
X92571893Y-154873541D02*
X92524274Y-154968779D01*
X92524274Y-154968779D02*
X92476655Y-155159255D01*
X92476655Y-155159255D02*
X92476655Y-155302112D01*
X92476655Y-155302112D02*
X92524274Y-155492588D01*
X92524274Y-155492588D02*
X92571893Y-155587826D01*
X92571893Y-155587826D02*
X92667131Y-155683065D01*
X92667131Y-155683065D02*
X92809988Y-155730684D01*
X92809988Y-155730684D02*
X93048083Y-155730684D01*
X92143321Y-154730684D02*
X91524274Y-154730684D01*
X91524274Y-154730684D02*
X91857607Y-155111636D01*
X91857607Y-155111636D02*
X91714750Y-155111636D01*
X91714750Y-155111636D02*
X91619512Y-155159255D01*
X91619512Y-155159255D02*
X91571893Y-155206874D01*
X91571893Y-155206874D02*
X91524274Y-155302112D01*
X91524274Y-155302112D02*
X91524274Y-155540207D01*
X91524274Y-155540207D02*
X91571893Y-155635445D01*
X91571893Y-155635445D02*
X91619512Y-155683065D01*
X91619512Y-155683065D02*
X91714750Y-155730684D01*
X91714750Y-155730684D02*
X92000464Y-155730684D01*
X92000464Y-155730684D02*
X92095702Y-155683065D01*
X92095702Y-155683065D02*
X92143321Y-155635445D01*
X93619512Y-137950684D02*
X93952845Y-137474493D01*
X94190940Y-137950684D02*
X94190940Y-136950684D01*
X94190940Y-136950684D02*
X93809988Y-136950684D01*
X93809988Y-136950684D02*
X93714750Y-136998303D01*
X93714750Y-136998303D02*
X93667131Y-137045922D01*
X93667131Y-137045922D02*
X93619512Y-137141160D01*
X93619512Y-137141160D02*
X93619512Y-137284017D01*
X93619512Y-137284017D02*
X93667131Y-137379255D01*
X93667131Y-137379255D02*
X93714750Y-137426874D01*
X93714750Y-137426874D02*
X93809988Y-137474493D01*
X93809988Y-137474493D02*
X94190940Y-137474493D01*
X93190940Y-136950684D02*
X93190940Y-137760207D01*
X93190940Y-137760207D02*
X93143321Y-137855445D01*
X93143321Y-137855445D02*
X93095702Y-137903065D01*
X93095702Y-137903065D02*
X93000464Y-137950684D01*
X93000464Y-137950684D02*
X92809988Y-137950684D01*
X92809988Y-137950684D02*
X92714750Y-137903065D01*
X92714750Y-137903065D02*
X92667131Y-137855445D01*
X92667131Y-137855445D02*
X92619512Y-137760207D01*
X92619512Y-137760207D02*
X92619512Y-136950684D01*
X92143321Y-137950684D02*
X92143321Y-136950684D01*
X92143321Y-136950684D02*
X91571893Y-137950684D01*
X91571893Y-137950684D02*
X91571893Y-136950684D01*
X92952845Y-185924969D02*
X92476655Y-185924969D01*
X93048083Y-186210684D02*
X92714750Y-185210684D01*
X92714750Y-185210684D02*
X92381417Y-186210684D01*
X92143321Y-185210684D02*
X91524274Y-185210684D01*
X91524274Y-185210684D02*
X91857607Y-185591636D01*
X91857607Y-185591636D02*
X91714750Y-185591636D01*
X91714750Y-185591636D02*
X91619512Y-185639255D01*
X91619512Y-185639255D02*
X91571893Y-185686874D01*
X91571893Y-185686874D02*
X91524274Y-185782112D01*
X91524274Y-185782112D02*
X91524274Y-186020207D01*
X91524274Y-186020207D02*
X91571893Y-186115445D01*
X91571893Y-186115445D02*
X91619512Y-186163065D01*
X91619512Y-186163065D02*
X91714750Y-186210684D01*
X91714750Y-186210684D02*
X92000464Y-186210684D01*
X92000464Y-186210684D02*
X92095702Y-186163065D01*
X92095702Y-186163065D02*
X92143321Y-186115445D01*
X95571892Y-117249731D02*
X94809988Y-117249731D01*
X95190940Y-117630684D02*
X95190940Y-116868779D01*
X94429035Y-116630684D02*
X93809988Y-116630684D01*
X93809988Y-116630684D02*
X94143321Y-117011636D01*
X94143321Y-117011636D02*
X94000464Y-117011636D01*
X94000464Y-117011636D02*
X93905226Y-117059255D01*
X93905226Y-117059255D02*
X93857607Y-117106874D01*
X93857607Y-117106874D02*
X93809988Y-117202112D01*
X93809988Y-117202112D02*
X93809988Y-117440207D01*
X93809988Y-117440207D02*
X93857607Y-117535445D01*
X93857607Y-117535445D02*
X93905226Y-117583065D01*
X93905226Y-117583065D02*
X94000464Y-117630684D01*
X94000464Y-117630684D02*
X94286178Y-117630684D01*
X94286178Y-117630684D02*
X94381416Y-117583065D01*
X94381416Y-117583065D02*
X94429035Y-117535445D01*
X93381416Y-117535445D02*
X93333797Y-117583065D01*
X93333797Y-117583065D02*
X93381416Y-117630684D01*
X93381416Y-117630684D02*
X93429035Y-117583065D01*
X93429035Y-117583065D02*
X93381416Y-117535445D01*
X93381416Y-117535445D02*
X93381416Y-117630684D01*
X93000464Y-116630684D02*
X92381417Y-116630684D01*
X92381417Y-116630684D02*
X92714750Y-117011636D01*
X92714750Y-117011636D02*
X92571893Y-117011636D01*
X92571893Y-117011636D02*
X92476655Y-117059255D01*
X92476655Y-117059255D02*
X92429036Y-117106874D01*
X92429036Y-117106874D02*
X92381417Y-117202112D01*
X92381417Y-117202112D02*
X92381417Y-117440207D01*
X92381417Y-117440207D02*
X92429036Y-117535445D01*
X92429036Y-117535445D02*
X92476655Y-117583065D01*
X92476655Y-117583065D02*
X92571893Y-117630684D01*
X92571893Y-117630684D02*
X92857607Y-117630684D01*
X92857607Y-117630684D02*
X92952845Y-117583065D01*
X92952845Y-117583065D02*
X93000464Y-117535445D01*
X92095702Y-116630684D02*
X91762369Y-117630684D01*
X91762369Y-117630684D02*
X91429036Y-116630684D01*
X93333797Y-146989851D02*
X93095702Y-147989851D01*
X93095702Y-147989851D02*
X92905226Y-147275565D01*
X92905226Y-147275565D02*
X92714750Y-147989851D01*
X92714750Y-147989851D02*
X92476655Y-146989851D01*
X91524274Y-147989851D02*
X91857607Y-147513660D01*
X92095702Y-147989851D02*
X92095702Y-146989851D01*
X92095702Y-146989851D02*
X91714750Y-146989851D01*
X91714750Y-146989851D02*
X91619512Y-147037470D01*
X91619512Y-147037470D02*
X91571893Y-147085089D01*
X91571893Y-147085089D02*
X91524274Y-147180327D01*
X91524274Y-147180327D02*
X91524274Y-147323184D01*
X91524274Y-147323184D02*
X91571893Y-147418422D01*
X91571893Y-147418422D02*
X91619512Y-147466041D01*
X91619512Y-147466041D02*
X91714750Y-147513660D01*
X91714750Y-147513660D02*
X92095702Y-147513660D01*
X93376655Y-146712232D02*
X91433798Y-146712232D01*
X92952845Y-180844968D02*
X92476655Y-180844968D01*
X93048083Y-181130683D02*
X92714750Y-180130683D01*
X92714750Y-180130683D02*
X92381417Y-181130683D01*
X92143321Y-180130683D02*
X91476655Y-180130683D01*
X91476655Y-180130683D02*
X91905226Y-181130683D01*
M02*
