%TF.GenerationSoftware,KiCad,Pcbnew,8.0.0*%
%TF.CreationDate,2024-03-06T22:08:17-05:00*%
%TF.ProjectId,Sentinel 65X - Prototype 4,53656e74-696e-4656-9c20-363558202d20,rev?*%
%TF.SameCoordinates,Original*%
%TF.FileFunction,Paste,Top*%
%TF.FilePolarity,Positive*%
%FSLAX46Y46*%
G04 Gerber Fmt 4.6, Leading zero omitted, Abs format (unit mm)*
G04 Created by KiCad (PCBNEW 8.0.0) date 2024-03-06 22:08:17*
%MOMM*%
%LPD*%
G01*
G04 APERTURE LIST*
G04 Aperture macros list*
%AMRoundRect*
0 Rectangle with rounded corners*
0 $1 Rounding radius*
0 $2 $3 $4 $5 $6 $7 $8 $9 X,Y pos of 4 corners*
0 Add a 4 corners polygon primitive as box body*
4,1,4,$2,$3,$4,$5,$6,$7,$8,$9,$2,$3,0*
0 Add four circle primitives for the rounded corners*
1,1,$1+$1,$2,$3*
1,1,$1+$1,$4,$5*
1,1,$1+$1,$6,$7*
1,1,$1+$1,$8,$9*
0 Add four rect primitives between the rounded corners*
20,1,$1+$1,$2,$3,$4,$5,0*
20,1,$1+$1,$4,$5,$6,$7,0*
20,1,$1+$1,$6,$7,$8,$9,0*
20,1,$1+$1,$8,$9,$2,$3,0*%
G04 Aperture macros list end*
%ADD10RoundRect,0.250000X-0.262500X-0.450000X0.262500X-0.450000X0.262500X0.450000X-0.262500X0.450000X0*%
%ADD11RoundRect,0.250000X-0.250000X-0.475000X0.250000X-0.475000X0.250000X0.475000X-0.250000X0.475000X0*%
%ADD12RoundRect,0.250000X0.262500X0.450000X-0.262500X0.450000X-0.262500X-0.450000X0.262500X-0.450000X0*%
%ADD13RoundRect,0.250000X0.475000X-0.250000X0.475000X0.250000X-0.475000X0.250000X-0.475000X-0.250000X0*%
%ADD14RoundRect,0.250000X0.250000X0.475000X-0.250000X0.475000X-0.250000X-0.475000X0.250000X-0.475000X0*%
%ADD15RoundRect,0.250000X-0.475000X0.250000X-0.475000X-0.250000X0.475000X-0.250000X0.475000X0.250000X0*%
%ADD16RoundRect,0.250000X-0.450000X0.262500X-0.450000X-0.262500X0.450000X-0.262500X0.450000X0.262500X0*%
%ADD17R,1.100000X2.000000*%
%ADD18R,2.000000X1.000000*%
%ADD19R,2.000000X2.000000*%
%ADD20RoundRect,0.250000X0.450000X-0.262500X0.450000X0.262500X-0.450000X0.262500X-0.450000X-0.262500X0*%
%ADD21R,1.540000X1.800000*%
%ADD22R,1.200000X0.400000*%
%ADD23R,1.800000X1.540000*%
%ADD24RoundRect,0.250000X-0.550000X1.050000X-0.550000X-1.050000X0.550000X-1.050000X0.550000X1.050000X0*%
%ADD25RoundRect,0.250000X0.550000X-1.050000X0.550000X1.050000X-0.550000X1.050000X-0.550000X-1.050000X0*%
%ADD26RoundRect,0.375000X-0.375000X0.625000X-0.375000X-0.625000X0.375000X-0.625000X0.375000X0.625000X0*%
%ADD27RoundRect,0.500000X-1.400000X0.500000X-1.400000X-0.500000X1.400000X-0.500000X1.400000X0.500000X0*%
G04 APERTURE END LIST*
D10*
%TO.C,R8*%
X194631576Y-199055000D03*
X196456576Y-199055000D03*
%TD*%
D11*
%TO.C,C9*%
X235978393Y-210904423D03*
X237878393Y-210904423D03*
%TD*%
D12*
%TO.C,R64*%
X163529204Y-188430358D03*
X161704204Y-188430358D03*
%TD*%
D13*
%TO.C,C10*%
X140824506Y-224159779D03*
X140824506Y-222259779D03*
%TD*%
D14*
%TO.C,C22*%
X99531718Y-73982794D03*
X97631718Y-73982794D03*
%TD*%
D12*
%TO.C,R18*%
X196456576Y-177024534D03*
X194631576Y-177024534D03*
%TD*%
%TO.C,R45*%
X207432523Y-213531890D03*
X205607523Y-213531890D03*
%TD*%
D15*
%TO.C,C4*%
X196488441Y-187992700D03*
X196488441Y-189892700D03*
%TD*%
D10*
%TO.C,R54*%
X194583487Y-203764013D03*
X196408487Y-203764013D03*
%TD*%
D16*
%TO.C,R29*%
X221503631Y-69741395D03*
X221503631Y-71566395D03*
%TD*%
%TO.C,R27*%
X216913631Y-69741395D03*
X216913631Y-71566395D03*
%TD*%
%TO.C,R55*%
X129013552Y-222077117D03*
X129013552Y-223902117D03*
%TD*%
D10*
%TO.C,R70*%
X109166881Y-79735000D03*
X110991881Y-79735000D03*
%TD*%
D17*
%TO.C,J9*%
X173664126Y-201596139D03*
X171164126Y-201596139D03*
X168664126Y-201596139D03*
X166164126Y-201596139D03*
X163664126Y-201596139D03*
X161164126Y-201596139D03*
X158739126Y-201596139D03*
X157039126Y-201596139D03*
X176164126Y-201596139D03*
D18*
X153989126Y-212996139D03*
D19*
X153089126Y-208346139D03*
X153089126Y-226996139D03*
X182089126Y-208346139D03*
X182089126Y-226996139D03*
D18*
X153989126Y-224546139D03*
X153989126Y-221946139D03*
%TD*%
D16*
%TO.C,R25*%
X221503631Y-64248099D03*
X221503631Y-66073099D03*
%TD*%
D12*
%TO.C,R24*%
X218944951Y-67891325D03*
X217119951Y-67891325D03*
%TD*%
D20*
%TO.C,R44*%
X158773968Y-199111232D03*
X158773968Y-197286232D03*
%TD*%
D11*
%TO.C,C6*%
X174941609Y-193356109D03*
X176841609Y-193356109D03*
%TD*%
D21*
%TO.C,X2*%
X238815000Y-199475000D03*
X236135000Y-199475000D03*
X236135000Y-202275000D03*
X238815000Y-202275000D03*
%TD*%
D16*
%TO.C,R68*%
X112255000Y-56132500D03*
X112255000Y-57957500D03*
%TD*%
D12*
%TO.C,R63*%
X163529204Y-190745357D03*
X161704204Y-190745357D03*
%TD*%
D16*
%TO.C,R39*%
X192939589Y-222073568D03*
X192939589Y-223898568D03*
%TD*%
D13*
%TO.C,C1*%
X235698459Y-191723662D03*
X235698459Y-189823662D03*
%TD*%
D20*
%TO.C,R50*%
X163698968Y-199116232D03*
X163698968Y-197291232D03*
%TD*%
D10*
%TO.C,R66*%
X241064106Y-202506512D03*
X242889106Y-202506512D03*
%TD*%
D22*
%TO.C,U8*%
X106725000Y-80447500D03*
X106725000Y-79812500D03*
X106725000Y-79177500D03*
X106725000Y-78542500D03*
X106725000Y-77907500D03*
X106725000Y-77272500D03*
X106725000Y-76637500D03*
X106725000Y-76002500D03*
X101525000Y-76002500D03*
X101525000Y-76637500D03*
X101525000Y-77272500D03*
X101525000Y-77907500D03*
X101525000Y-78542500D03*
X101525000Y-79177500D03*
X101525000Y-79812500D03*
X101525000Y-80447500D03*
%TD*%
D11*
%TO.C,C3*%
X215155372Y-171788184D03*
X217055372Y-171788184D03*
%TD*%
D20*
%TO.C,R23*%
X219373631Y-66073099D03*
X219373631Y-64248099D03*
%TD*%
D12*
%TO.C,R49*%
X213420721Y-213544466D03*
X211595721Y-213544466D03*
%TD*%
D16*
%TO.C,R51*%
X218862250Y-211869677D03*
X218862250Y-213694677D03*
%TD*%
D23*
%TO.C,X3*%
X223355852Y-117803392D03*
X223355852Y-115123392D03*
X220555852Y-115123392D03*
X220555852Y-117803392D03*
%TD*%
D10*
%TO.C,R56*%
X194583487Y-205783262D03*
X196408487Y-205783262D03*
%TD*%
D20*
%TO.C,R22*%
X216913631Y-66073099D03*
X216913631Y-64248099D03*
%TD*%
D12*
%TO.C,R53*%
X196456576Y-201525414D03*
X194631576Y-201525414D03*
%TD*%
D20*
%TO.C,R67*%
X110305000Y-57957500D03*
X110305000Y-56132500D03*
%TD*%
D16*
%TO.C,R12*%
X212613631Y-69741395D03*
X212613631Y-71566395D03*
%TD*%
D10*
%TO.C,R7*%
X194631576Y-196487679D03*
X196456576Y-196487679D03*
%TD*%
D16*
%TO.C,R2*%
X241443531Y-170999327D03*
X241443531Y-172824327D03*
%TD*%
D24*
%TO.C,C16*%
X95675000Y-64975000D03*
X95675000Y-68575000D03*
%TD*%
D20*
%TO.C,R46*%
X171198968Y-199111231D03*
X171198968Y-197286231D03*
%TD*%
D10*
%TO.C,R41*%
X92607539Y-106717150D03*
X94432539Y-106717150D03*
%TD*%
D16*
%TO.C,R13*%
X241443531Y-190084327D03*
X241443531Y-191909327D03*
%TD*%
%TO.C,R37*%
X228263631Y-69741395D03*
X228263631Y-71566395D03*
%TD*%
D14*
%TO.C,C13*%
X221934842Y-120469294D03*
X220034842Y-120469294D03*
%TD*%
D16*
%TO.C,R36*%
X225803631Y-69741395D03*
X225803631Y-71566395D03*
%TD*%
D10*
%TO.C,R69*%
X109166881Y-81677786D03*
X110991881Y-81677786D03*
%TD*%
D13*
%TO.C,C14*%
X154873173Y-187917679D03*
X154873173Y-186017679D03*
%TD*%
D11*
%TO.C,C23*%
X98007693Y-79898647D03*
X99907693Y-79898647D03*
%TD*%
%TO.C,C20*%
X241112542Y-200154640D03*
X243012542Y-200154640D03*
%TD*%
D16*
%TO.C,R35*%
X223673631Y-69741395D03*
X223673631Y-71566395D03*
%TD*%
D12*
%TO.C,R65*%
X242968965Y-208490187D03*
X241143965Y-208490187D03*
%TD*%
D10*
%TO.C,R40*%
X110237244Y-106715358D03*
X112062244Y-106715358D03*
%TD*%
D16*
%TO.C,R34*%
X230393631Y-64248099D03*
X230393631Y-66073099D03*
%TD*%
D12*
%TO.C,R47*%
X242543546Y-220314007D03*
X240718546Y-220314007D03*
%TD*%
%TO.C,R19*%
X196456576Y-181235622D03*
X194631576Y-181235622D03*
%TD*%
%TO.C,R59*%
X163529204Y-179342679D03*
X161704204Y-179342679D03*
%TD*%
D16*
%TO.C,R20*%
X214783631Y-64248099D03*
X214783631Y-66073099D03*
%TD*%
D12*
%TO.C,R62*%
X163529204Y-186075358D03*
X161704204Y-186075358D03*
%TD*%
D16*
%TO.C,R26*%
X214783631Y-69741395D03*
X214783631Y-71566395D03*
%TD*%
D20*
%TO.C,R43*%
X176198968Y-199111232D03*
X176198968Y-197286232D03*
%TD*%
D16*
%TO.C,R28*%
X219373631Y-69741395D03*
X219373631Y-71566395D03*
%TD*%
%TO.C,R14*%
X241443531Y-183699327D03*
X241443531Y-185524327D03*
%TD*%
%TO.C,R58*%
X241443531Y-177314327D03*
X241443531Y-179139327D03*
%TD*%
%TO.C,R10*%
X208023631Y-69776395D03*
X208023631Y-71601395D03*
%TD*%
D20*
%TO.C,R15*%
X208490852Y-169871031D03*
X208490852Y-168046031D03*
%TD*%
D11*
%TO.C,C21*%
X108675000Y-74455000D03*
X110575000Y-74455000D03*
%TD*%
%TO.C,C2*%
X212651881Y-211393462D03*
X214551881Y-211393462D03*
%TD*%
D16*
%TO.C,R30*%
X223673631Y-64248099D03*
X223673631Y-66073099D03*
%TD*%
%TO.C,R9*%
X205893631Y-69776395D03*
X205893631Y-71601395D03*
%TD*%
D12*
%TO.C,R60*%
X163529204Y-181815358D03*
X161704204Y-181815358D03*
%TD*%
%TO.C,R33*%
X227889199Y-67891325D03*
X226064199Y-67891325D03*
%TD*%
D14*
%TO.C,C18*%
X99525000Y-71855000D03*
X97625000Y-71855000D03*
%TD*%
D12*
%TO.C,R17*%
X196456576Y-179140858D03*
X194631576Y-179140858D03*
%TD*%
D21*
%TO.C,X1*%
X238858459Y-194075358D03*
X236178459Y-194075358D03*
X236178459Y-196875358D03*
X238858459Y-196875358D03*
%TD*%
D16*
%TO.C,R6*%
X212653631Y-64248099D03*
X212653631Y-66073099D03*
%TD*%
D20*
%TO.C,R31*%
X225803631Y-66073099D03*
X225803631Y-64248099D03*
%TD*%
D12*
%TO.C,R5*%
X210166131Y-67897426D03*
X208341131Y-67897426D03*
%TD*%
D20*
%TO.C,R16*%
X205950852Y-169871031D03*
X205950852Y-168046031D03*
%TD*%
%TO.C,R3*%
X208023631Y-66073099D03*
X208023631Y-64248099D03*
%TD*%
D12*
%TO.C,R61*%
X163529204Y-183945358D03*
X161704204Y-183945358D03*
%TD*%
D21*
%TO.C,X4*%
X238815000Y-205075000D03*
X236135000Y-205075000D03*
X236135000Y-207875000D03*
X238815000Y-207875000D03*
%TD*%
D16*
%TO.C,R1*%
X205893631Y-64248099D03*
X205893631Y-66073099D03*
%TD*%
D25*
%TO.C,C17*%
X111925000Y-68575000D03*
X111925000Y-64975000D03*
%TD*%
D20*
%TO.C,R42*%
X156240039Y-199111232D03*
X156240039Y-197286232D03*
%TD*%
D11*
%TO.C,C19*%
X108675000Y-71855000D03*
X110575000Y-71855000D03*
%TD*%
D10*
%TO.C,R57*%
X241415177Y-211697105D03*
X243240177Y-211697105D03*
%TD*%
D26*
%TO.C,U7*%
X106253531Y-64136827D03*
X103953531Y-64136827D03*
D27*
X103953531Y-70436827D03*
D26*
X101653531Y-64136827D03*
%TD*%
D20*
%TO.C,R4*%
X210483631Y-66073099D03*
X210483631Y-64248099D03*
%TD*%
D13*
%TO.C,C12*%
X144878173Y-207003531D03*
X144878173Y-205103531D03*
%TD*%
D14*
%TO.C,C15*%
X173113313Y-193356109D03*
X171213313Y-193356109D03*
%TD*%
D12*
%TO.C,R21*%
X196456576Y-183423255D03*
X194631576Y-183423255D03*
%TD*%
D13*
%TO.C,C5*%
X241608173Y-196553531D03*
X241608173Y-194653531D03*
%TD*%
D11*
%TO.C,C11*%
X241136345Y-206457402D03*
X243036345Y-206457402D03*
%TD*%
D16*
%TO.C,R11*%
X210483631Y-69741395D03*
X210483631Y-71566395D03*
%TD*%
D20*
%TO.C,R48*%
X173698968Y-199111232D03*
X173698968Y-197286232D03*
%TD*%
D13*
%TO.C,C7*%
X204631962Y-224029740D03*
X204631962Y-222129740D03*
%TD*%
%TO.C,C8*%
X166198968Y-199128732D03*
X166198968Y-197228732D03*
%TD*%
D16*
%TO.C,R52*%
X188768058Y-116064108D03*
X188768058Y-117889108D03*
%TD*%
%TO.C,R38*%
X230393631Y-69741395D03*
X230393631Y-71566395D03*
%TD*%
D20*
%TO.C,R32*%
X228263631Y-66073099D03*
X228263631Y-64248099D03*
%TD*%
M02*
