%TF.GenerationSoftware,KiCad,Pcbnew,8.0.0*%
%TF.CreationDate,2024-03-06T22:08:18-05:00*%
%TF.ProjectId,Sentinel 65X - Prototype 4,53656e74-696e-4656-9c20-363558202d20,rev?*%
%TF.SameCoordinates,Original*%
%TF.FileFunction,Soldermask,Bot*%
%TF.FilePolarity,Negative*%
%FSLAX46Y46*%
G04 Gerber Fmt 4.6, Leading zero omitted, Abs format (unit mm)*
G04 Created by KiCad (PCBNEW 8.0.0) date 2024-03-06 22:08:18*
%MOMM*%
%LPD*%
G01*
G04 APERTURE LIST*
%ADD10C,2.500000*%
%ADD11C,1.300000*%
%ADD12C,5.600000*%
%ADD13R,1.700000X1.700000*%
%ADD14O,1.700000X1.700000*%
%ADD15R,1.422400X1.422400*%
%ADD16C,1.422400*%
%ADD17R,7.000000X1.700000*%
%ADD18C,1.000000*%
%ADD19C,1.397000*%
%ADD20R,1.800000X1.800000*%
%ADD21C,1.800000*%
%ADD22C,1.700000*%
%ADD23C,0.700000*%
%ADD24O,0.900000X2.400000*%
%ADD25O,0.900000X1.700000*%
%ADD26C,4.000000*%
%ADD27R,1.600000X1.600000*%
%ADD28C,1.600000*%
%ADD29O,1.600000X1.600000*%
%ADD30R,1.600000X2.400000*%
%ADD31O,1.600000X2.400000*%
G04 APERTURE END LIST*
D10*
%TO.C,J11*%
X117072102Y-226745000D03*
X113072102Y-226745000D03*
X109072102Y-226745000D03*
X105072102Y-226745000D03*
X98572102Y-226745000D03*
X94572102Y-226745000D03*
X90572102Y-226745000D03*
%TD*%
D11*
%TO.C,J9*%
X155689126Y-203796139D03*
X178089126Y-203796139D03*
%TD*%
D12*
%TO.C,H6*%
X128117172Y-57207679D03*
%TD*%
D13*
%TO.C,J6*%
X241623621Y-217254071D03*
D14*
X241623621Y-214714071D03*
%TD*%
D15*
%TO.C,U6*%
X173565852Y-186327679D03*
D16*
X176105852Y-188867679D03*
X176105852Y-186327679D03*
X178645852Y-188867679D03*
X181185852Y-186327679D03*
X178645852Y-186327679D03*
X181185852Y-183787679D03*
X178645852Y-183787679D03*
X181185852Y-181247679D03*
X178645852Y-181247679D03*
X181185852Y-178707679D03*
X178645852Y-176167679D03*
X178645852Y-178707679D03*
X176105852Y-176167679D03*
X176105852Y-178707679D03*
X173565852Y-176167679D03*
X173565852Y-178707679D03*
X171025852Y-176167679D03*
X168485852Y-178707679D03*
X171025852Y-178707679D03*
X168485852Y-181247679D03*
X171025852Y-181247679D03*
X168485852Y-183787679D03*
X171025852Y-183787679D03*
X168485852Y-186327679D03*
X171025852Y-188867679D03*
X171025852Y-186327679D03*
X173565852Y-188867679D03*
%TD*%
D17*
%TO.C,J3*%
X82760852Y-193312679D03*
D18*
X90380852Y-192042679D03*
D17*
X82760852Y-190772679D03*
D18*
X90380852Y-189502679D03*
D17*
X82760852Y-188232679D03*
D18*
X90380852Y-186962679D03*
D17*
X82760852Y-185692679D03*
D18*
X90380852Y-184422679D03*
D17*
X82760852Y-183152679D03*
D18*
X90380852Y-181882679D03*
D17*
X82760852Y-180612679D03*
D18*
X90380852Y-179342679D03*
D17*
X82760852Y-178072679D03*
D18*
X90380852Y-176802679D03*
D17*
X82760852Y-175532679D03*
D18*
X90380852Y-174262679D03*
D17*
X82760852Y-172992679D03*
D18*
X90380852Y-171722679D03*
D17*
X82760852Y-170452679D03*
D18*
X90380852Y-169182679D03*
D17*
X82760852Y-167912679D03*
D18*
X90380852Y-166642679D03*
D17*
X82760852Y-165372679D03*
D18*
X90380852Y-164102679D03*
D17*
X82760852Y-162832679D03*
D18*
X90380852Y-161562679D03*
D17*
X82760852Y-160292679D03*
D18*
X90380852Y-159022679D03*
D17*
X82760852Y-157752679D03*
D18*
X90380852Y-156482679D03*
D17*
X82760852Y-155212679D03*
D18*
X90380852Y-153942679D03*
D17*
X82760852Y-152672679D03*
D18*
X90380852Y-151402679D03*
D17*
X82760852Y-150132679D03*
D18*
X90380852Y-148862679D03*
D17*
X82760852Y-147592679D03*
D18*
X90380852Y-146322679D03*
D17*
X82760852Y-145052679D03*
D18*
X90380852Y-143782679D03*
D17*
X82760852Y-142512679D03*
D18*
X90380852Y-141242679D03*
D17*
X82760852Y-139972679D03*
D18*
X90380852Y-138702679D03*
D17*
X82760852Y-137432679D03*
D18*
X90380852Y-136162679D03*
D17*
X82760852Y-134892679D03*
D18*
X90380852Y-133622679D03*
D17*
X82760852Y-132352679D03*
D18*
X90380852Y-131082679D03*
D17*
X82760852Y-129812679D03*
D18*
X90380852Y-128542679D03*
D17*
X82760852Y-127272679D03*
D18*
X90380852Y-126002679D03*
D17*
X82760852Y-124732679D03*
D18*
X90380852Y-123462679D03*
D17*
X82760852Y-122192679D03*
D18*
X90380852Y-120922679D03*
D17*
X82760852Y-119652679D03*
D18*
X90380852Y-118382679D03*
D17*
X82760852Y-117112679D03*
D18*
X90380852Y-115842679D03*
D17*
X82760852Y-114572679D03*
D18*
X90380852Y-113302679D03*
X87840852Y-193312679D03*
X87840852Y-190772679D03*
X87840852Y-188232679D03*
X87840852Y-185692679D03*
X87840852Y-183152679D03*
X87840852Y-180612679D03*
X87840852Y-178072679D03*
X87840852Y-175532679D03*
X87840852Y-172992679D03*
X87840852Y-170452679D03*
X87840852Y-167912679D03*
X87840852Y-165372679D03*
X87840852Y-162832679D03*
X87840852Y-160292679D03*
X87840852Y-157752679D03*
X87840852Y-155212679D03*
X87840852Y-152672679D03*
X87840852Y-150132679D03*
X87840852Y-147592679D03*
X87840852Y-145052679D03*
X87840852Y-142512679D03*
X87840852Y-139972679D03*
X87840852Y-137432679D03*
X87840852Y-134892679D03*
X87840852Y-132352679D03*
X87760852Y-129812679D03*
X87760852Y-127272679D03*
X87840852Y-124732679D03*
X87840852Y-122192679D03*
X87840852Y-119652679D03*
X87840852Y-117112679D03*
X87840852Y-114572679D03*
%TD*%
D19*
%TO.C,SW3*%
X131054121Y-220677140D03*
X138674121Y-220677140D03*
X131054121Y-225757140D03*
X138674121Y-225757140D03*
%TD*%
D13*
%TO.C,J5*%
X197439065Y-216036659D03*
D14*
X199979065Y-216036659D03*
%TD*%
D13*
%TO.C,J7*%
X126127294Y-219395671D03*
D14*
X123587294Y-219395671D03*
%TD*%
D20*
%TO.C,D4*%
X212398173Y-218383531D03*
D21*
X212398173Y-215843531D03*
%TD*%
D20*
%TO.C,D5*%
X218418173Y-218383532D03*
D21*
X218418173Y-215843532D03*
%TD*%
D19*
%TO.C,SW1*%
X194904065Y-220575449D03*
X202524065Y-220575449D03*
X194904065Y-225655449D03*
X202524065Y-225655449D03*
%TD*%
D22*
%TO.C,U5*%
X202250000Y-67170000D03*
X202250000Y-64630000D03*
X202250000Y-62090000D03*
X202250000Y-59550000D03*
X202250000Y-57010000D03*
X202250000Y-54470000D03*
X175580000Y-67805000D03*
X178120000Y-67805000D03*
X180660000Y-67805000D03*
X183200000Y-67805000D03*
X185740000Y-67805000D03*
X188280000Y-67805000D03*
X190820000Y-67805000D03*
X193360000Y-67805000D03*
X195900000Y-67805000D03*
%TD*%
D15*
%TO.C,U2*%
X216110852Y-206647679D03*
D16*
X216110852Y-204107679D03*
X218650852Y-206647679D03*
X218650852Y-204107679D03*
X221190852Y-206647679D03*
X221190852Y-204107679D03*
X223730852Y-206647679D03*
X223730852Y-204107679D03*
X226270852Y-206647679D03*
X226270852Y-204107679D03*
X228810852Y-206647679D03*
X231350852Y-204107679D03*
X228810852Y-204107679D03*
X231350852Y-201567679D03*
X228810852Y-201567679D03*
X231350852Y-199027679D03*
X228810852Y-199027679D03*
X231350852Y-196487679D03*
X228810852Y-196487679D03*
X231350852Y-193947679D03*
X228810852Y-193947679D03*
X231350852Y-191407679D03*
X228810852Y-191407679D03*
X231350852Y-188867679D03*
X228810852Y-188867679D03*
X231350852Y-186327679D03*
X228810852Y-186327679D03*
X231350852Y-183787679D03*
X228810852Y-183787679D03*
X231350852Y-181247679D03*
X228810852Y-181247679D03*
X231350852Y-178707679D03*
X228810852Y-176167679D03*
X228810852Y-178707679D03*
X226270852Y-176167679D03*
X226270852Y-178707679D03*
X223730852Y-176167679D03*
X223730852Y-178707679D03*
X221190852Y-176167679D03*
X221190852Y-178707679D03*
X218650852Y-176167679D03*
X218650852Y-178707679D03*
X216110852Y-176167679D03*
X216110852Y-178707679D03*
X213570852Y-176167679D03*
X213570852Y-178707679D03*
X211030852Y-176167679D03*
X211030852Y-178707679D03*
X208490852Y-176167679D03*
X208490852Y-178707679D03*
X205950852Y-176167679D03*
X205950852Y-178707679D03*
X203410852Y-176167679D03*
X200870852Y-178707679D03*
X203410852Y-178707679D03*
X200870852Y-181247679D03*
X203410852Y-181247679D03*
X200870852Y-183787679D03*
X203410852Y-183787679D03*
X200870852Y-186327679D03*
X203410852Y-186327679D03*
X200870852Y-188867679D03*
X203410852Y-188867679D03*
X200870852Y-191407679D03*
X203410852Y-191407679D03*
X200870852Y-193947679D03*
X203410852Y-193947679D03*
X200870852Y-196487679D03*
X203410852Y-196487679D03*
X200870852Y-199027679D03*
X203410852Y-199027679D03*
X200870852Y-201567679D03*
X203410852Y-201567679D03*
X200870852Y-204107679D03*
X203410852Y-206647679D03*
X203410852Y-204107679D03*
X205950852Y-206647679D03*
X205950852Y-204107679D03*
X208490852Y-206647679D03*
X208490852Y-204107679D03*
X211030852Y-206647679D03*
X211030852Y-204107679D03*
X213570852Y-206647679D03*
X213570852Y-204107679D03*
%TD*%
D22*
%TO.C,J2*%
X127545871Y-129700000D03*
X130085871Y-129700000D03*
X132625871Y-129700000D03*
X135165871Y-129700000D03*
X137705871Y-129700000D03*
X140245871Y-129700000D03*
X142785871Y-129700000D03*
X145325871Y-129700000D03*
X147865871Y-129700000D03*
X150405871Y-129700000D03*
X152945871Y-129700000D03*
X155485871Y-129700000D03*
X158025871Y-129700000D03*
X160565871Y-129700000D03*
X163105871Y-129700000D03*
X165645871Y-129700000D03*
X168185871Y-129700000D03*
X170725871Y-129700000D03*
X173265871Y-129700000D03*
X175805871Y-129700000D03*
X178345871Y-129700000D03*
X180885871Y-129700000D03*
X183425871Y-129700000D03*
X185965871Y-129700000D03*
X188505871Y-129700000D03*
X191045871Y-129700000D03*
X193585871Y-129700000D03*
X196125871Y-129700000D03*
X198665871Y-129700000D03*
X201205871Y-129700000D03*
X203745871Y-129700000D03*
X206285871Y-129700000D03*
D13*
X127545871Y-134780000D03*
D22*
X130085871Y-134780000D03*
X132625871Y-134780000D03*
X135165871Y-134780000D03*
X137705871Y-134780000D03*
X140245871Y-134780000D03*
X142785871Y-134780000D03*
X145325871Y-134780000D03*
X147865871Y-134780000D03*
X150405871Y-134780000D03*
X152945871Y-134780000D03*
X155485871Y-134780000D03*
X158025871Y-134780000D03*
X160565871Y-134780000D03*
X163105871Y-134780000D03*
X165645871Y-134780000D03*
X168185871Y-134780000D03*
X170725871Y-134780000D03*
X173265871Y-134780000D03*
X175805871Y-134780000D03*
X178345871Y-134780000D03*
X180885871Y-134780000D03*
X183425871Y-134780000D03*
X185965871Y-134780000D03*
X188505871Y-134780000D03*
X191045871Y-134780000D03*
X193585871Y-134780000D03*
X196125871Y-134780000D03*
X198665871Y-134780000D03*
X201205871Y-134780000D03*
X203745871Y-134780000D03*
X206285871Y-134780000D03*
%TD*%
D12*
%TO.C,H1*%
X176430000Y-82606339D03*
%TD*%
D23*
%TO.C,J10*%
X106960922Y-57802658D03*
X106110922Y-57802658D03*
X105260922Y-57802658D03*
X104410922Y-57802658D03*
X103560922Y-57802658D03*
X102710922Y-57802658D03*
X101860922Y-57802658D03*
X101010922Y-57802658D03*
X101010922Y-56452658D03*
X101860922Y-56452658D03*
X102710922Y-56452658D03*
X103560922Y-56452658D03*
X104410922Y-56452658D03*
X105260922Y-56452658D03*
X106110922Y-56452658D03*
X106960922Y-56452658D03*
D24*
X108310922Y-56822658D03*
D25*
X108310922Y-53442658D03*
D24*
X99660922Y-56822658D03*
D25*
X99660922Y-53442658D03*
%TD*%
D13*
%TO.C,J4*%
X238045000Y-66657679D03*
D14*
X235505000Y-66657679D03*
X238045000Y-69197679D03*
X235505000Y-69197679D03*
X238045000Y-71737679D03*
X235505000Y-71737679D03*
X238045000Y-74277679D03*
X235505000Y-74277679D03*
X238045000Y-76817679D03*
X235505000Y-76817679D03*
X238045000Y-79357679D03*
X235505000Y-79357679D03*
X238045000Y-81897679D03*
X235505000Y-81897679D03*
X238045000Y-84437679D03*
X235505000Y-84437679D03*
%TD*%
D12*
%TO.C,H9*%
X165023820Y-57207679D03*
%TD*%
D26*
%TO.C,J1*%
X233260510Y-56596332D03*
X208260510Y-56596332D03*
D27*
X216445510Y-58646332D03*
D28*
X218735510Y-58646332D03*
X221025510Y-58646332D03*
X223315510Y-58646332D03*
X225605510Y-58646332D03*
X215300510Y-56666332D03*
X217590510Y-56666332D03*
X219880510Y-56666332D03*
X222170510Y-56666332D03*
X224460510Y-56666332D03*
X216445510Y-54686332D03*
X218735510Y-54686332D03*
X221025510Y-54686332D03*
X223315510Y-54686332D03*
X225605510Y-54686332D03*
%TD*%
D12*
%TO.C,H8*%
X216570852Y-131922500D03*
%TD*%
D20*
%TO.C,D2*%
X98941704Y-106715358D03*
D21*
X96401704Y-106715358D03*
%TD*%
D13*
%TO.C,J8*%
X130070496Y-108505000D03*
D14*
X130070496Y-111045000D03*
X132610496Y-108505000D03*
X132610496Y-111045000D03*
X135150496Y-108505000D03*
X135150496Y-111045000D03*
X137690496Y-108505000D03*
X137690496Y-111045000D03*
X140230496Y-108505000D03*
X140230496Y-111045000D03*
X142770496Y-108505000D03*
X142770496Y-111045000D03*
X145310496Y-108505000D03*
X145310496Y-111045000D03*
X147850496Y-108505000D03*
X147850496Y-111045000D03*
X150390496Y-108505000D03*
X150390496Y-111045000D03*
X152930496Y-108505000D03*
X152930496Y-111045000D03*
X155470496Y-108505000D03*
X155470496Y-111045000D03*
X158010496Y-108505000D03*
X158010496Y-111045000D03*
X160550496Y-108505000D03*
X160550496Y-111045000D03*
X163090496Y-108505000D03*
X163090496Y-111045000D03*
%TD*%
D20*
%TO.C,D1*%
X116761448Y-106715358D03*
D21*
X114221448Y-106715358D03*
%TD*%
D12*
%TO.C,H4*%
X117570852Y-131922500D03*
%TD*%
D20*
%TO.C,D3*%
X206518173Y-218383531D03*
D21*
X206518173Y-215843531D03*
%TD*%
D27*
%TO.C,U3*%
X151975852Y-179342679D03*
D29*
X149435852Y-179342679D03*
X146895852Y-179342679D03*
X144355852Y-179342679D03*
X141815852Y-179342679D03*
X139275852Y-179342679D03*
X136735852Y-179342679D03*
X134195852Y-179342679D03*
X131655852Y-179342679D03*
X129115852Y-179342679D03*
X126575852Y-179342679D03*
X124035852Y-179342679D03*
X121495852Y-179342679D03*
X118955852Y-179342679D03*
X116415852Y-179342679D03*
X113875852Y-179342679D03*
X113875852Y-194582679D03*
X116415852Y-194582679D03*
X118955852Y-194582679D03*
X121495852Y-194582679D03*
X124035852Y-194582679D03*
X126575852Y-194582679D03*
X129115852Y-194582679D03*
X131655852Y-194582679D03*
X134195852Y-194582679D03*
X136735852Y-194582679D03*
X139275852Y-194582679D03*
X141815852Y-194582679D03*
X144355852Y-194582679D03*
X146895852Y-194582679D03*
X149435852Y-194582679D03*
X151975852Y-194582679D03*
%TD*%
D15*
%TO.C,U4*%
X138005852Y-207327171D03*
D16*
X140545852Y-204787171D03*
X138005852Y-204787171D03*
X140545852Y-202247171D03*
X138005852Y-199707171D03*
X138005852Y-202247171D03*
X135465852Y-199707171D03*
X135465852Y-202247171D03*
X132925852Y-199707171D03*
X132925852Y-202247171D03*
X130385852Y-199707171D03*
X130385852Y-202247171D03*
X127845852Y-199707171D03*
X125305852Y-202247171D03*
X127845852Y-202247171D03*
X125305852Y-204787171D03*
X127845852Y-204787171D03*
X125305852Y-207327171D03*
X127845852Y-207327171D03*
X125305852Y-209867171D03*
X127845852Y-212407171D03*
X127845852Y-209867171D03*
X130385852Y-212407171D03*
X130385852Y-209867171D03*
X132925852Y-212407171D03*
X132925852Y-209867171D03*
X135465852Y-212407171D03*
X135465852Y-209867171D03*
X138005852Y-212407171D03*
X140545852Y-209867171D03*
X138005852Y-209867171D03*
X140545852Y-207327171D03*
%TD*%
D12*
%TO.C,H5*%
X225998352Y-215207679D03*
%TD*%
%TO.C,H7*%
X241133252Y-57482679D03*
%TD*%
D19*
%TO.C,SW2*%
X238602763Y-218541613D03*
X230982763Y-218541613D03*
X238602763Y-213461613D03*
X230982763Y-213461613D03*
%TD*%
D10*
%TO.C,J12*%
X216132102Y-227210000D03*
X220132102Y-227210000D03*
X224132102Y-227210000D03*
X228132102Y-227210000D03*
X234632102Y-227210000D03*
X238632102Y-227210000D03*
X242632102Y-227210000D03*
%TD*%
D30*
%TO.C,U1*%
X182455852Y-111397679D03*
D31*
X184995852Y-111397679D03*
X187535852Y-111397679D03*
X190075852Y-111397679D03*
X192615852Y-111397679D03*
X195155852Y-111397679D03*
X197695852Y-111397679D03*
X200235852Y-111397679D03*
X202775852Y-111397679D03*
X205315852Y-111397679D03*
X207855852Y-111397679D03*
X210395852Y-111397679D03*
X212935852Y-111397679D03*
X215475852Y-111397679D03*
X218015852Y-111397679D03*
X220555852Y-111397679D03*
X223095852Y-111397679D03*
X225635852Y-111397679D03*
X228175852Y-111397679D03*
X230715852Y-111397679D03*
X233255852Y-111397679D03*
X235795852Y-111397679D03*
X238335852Y-111397679D03*
X240875852Y-111397679D03*
X240875852Y-93637679D03*
X238335852Y-93637679D03*
X235795852Y-93637679D03*
X233255852Y-93637679D03*
X230715852Y-93637679D03*
X228175852Y-93637679D03*
X225635852Y-93637679D03*
X223095852Y-93637679D03*
X220555852Y-93637679D03*
X218015852Y-93637679D03*
X215475852Y-93637679D03*
X212935852Y-93637679D03*
X210395852Y-93637679D03*
X207855852Y-93637679D03*
X205315852Y-93637679D03*
X202775852Y-93637679D03*
X200235852Y-93637679D03*
X197695852Y-93637679D03*
X195155852Y-93637679D03*
X192615852Y-93637679D03*
X190075852Y-93637679D03*
X187535852Y-93637679D03*
X184995852Y-93637679D03*
X182455852Y-93637679D03*
%TD*%
D12*
%TO.C,H3*%
X109093352Y-215207679D03*
%TD*%
M02*
