M48
; DRILL file {KiCad 7.0.7} date 2024 February 01, Thursday 01:26:29
; FORMAT={-:-/ absolute / inch / decimal}
; #@! TF.CreationDate,2024-02-01T01:26:29-05:00
; #@! TF.GenerationSoftware,Kicad,Pcbnew,7.0.7
; #@! TF.FileFunction,Plated,1,4,PTH
FMAT,2
INCH
; #@! TA.AperFunction,Plated,PTH,ViaDrill
T1C0.0138
; #@! TA.AperFunction,Plated,PTH,ViaDrill
T2C0.0157
; #@! TA.AperFunction,Plated,PTH,ComponentDrill
T3C0.0197
; #@! TA.AperFunction,Plated,PTH,ComponentDrill
T4C0.0276
; #@! TA.AperFunction,Plated,PTH,ComponentDrill
T5C0.0315
; #@! TA.AperFunction,Plated,PTH,ComponentDrill
T6C0.0320
; #@! TA.AperFunction,Plated,PTH,ComponentDrill
T7C0.0354
; #@! TA.AperFunction,Plated,PTH,ComponentDrill
T8C0.0394
; #@! TA.AperFunction,Plated,PTH,ComponentDrill
T9C0.0433
; #@! TA.AperFunction,Plated,PTH,ComponentDrill
T10C0.0492
; #@! TA.AperFunction,Plated,PTH,ComponentDrill
T11C0.1260
%
G90
G05
T1
X6.976Y-7.0254
X7.0Y-4.0
X7.0Y-5.0
X7.0Y-6.0
X7.125Y-5.4
X7.125Y-5.45
X7.125Y-5.5
X7.125Y-5.55
X7.125Y-5.6
X7.125Y-5.65
X7.125Y-5.7
X7.125Y-5.75
X7.125Y-5.8
X7.125Y-5.85
X7.15Y-4.6
X7.15Y-4.65
X7.15Y-4.7
X7.15Y-4.75
X7.15Y-4.8
X7.15Y-4.85
X7.15Y-4.9
X7.15Y-4.95
X7.15Y-5.0
X7.15Y-5.05
X7.15Y-5.1
X7.15Y-5.15
X7.15Y-5.2
X7.15Y-5.25
X7.15Y-5.3
X7.15Y-5.35
X7.2Y-4.6
X7.25Y-4.6
X7.3Y-4.6
X7.35Y-4.6
X7.4Y-4.6
X7.45Y-4.6
X7.5Y-4.6
X7.55Y-4.6
X7.6Y-4.6
X7.65Y-3.65
X7.65Y-3.7
X7.65Y-3.75
X7.65Y-3.8
X7.65Y-3.85
X7.65Y-3.9
X7.65Y-4.6
X7.675Y-3.6
X7.7Y-3.925
X7.7Y-4.075
X7.7Y-4.125
X7.7Y-4.175
X7.7Y-4.225
X7.7Y-4.275
X7.7Y-4.325
X7.7Y-4.375
X7.7Y-4.425
X7.7Y-4.475
X7.7Y-4.525
X7.7Y-4.575
X7.725Y-3.6
X7.75Y-3.95
X7.75Y-4.0
X7.75Y-4.05
X7.775Y-3.575
X7.825Y-3.575
X7.875Y-3.575
X7.925Y-3.575
X7.9695Y-6.0171
X7.975Y-3.575
X7.9972Y-5.0371
X8.0Y-3.275
X8.0Y-3.325
X8.0Y-3.375
X8.0Y-3.425
X8.0Y-3.475
X8.0Y-3.525
X8.0416Y-3.9989
X8.9707Y-6.0555
X9.0Y-5.0
X9.0009Y-3.9786
X10.004Y-5.0251
X10.017Y-3.9961
X11.0Y-4.0
X11.0Y-6.0
X11.0226Y-7.0912
T2
X6.625Y-6.325
X6.675Y-6.125
X6.85Y-6.475
X7.025Y-6.575
X7.15Y-6.525
X7.25Y-4.7
X7.25Y-6.975
X7.3Y-6.475
X7.325Y-4.9
X7.375Y-6.225
X7.425Y-5.0
X7.475Y-6.325
X7.5Y-4.8
X7.75Y-4.125
X7.75Y-6.275
X7.75Y-7.325
X7.775Y-4.175
X7.775Y-6.925
X7.8Y-4.225
X7.825Y-4.275
X7.825Y-7.2
X7.825Y-7.425
X7.85Y-4.325
X7.85Y-6.775
X7.875Y-4.175
X7.875Y-7.175
X7.9Y-4.125
X7.9Y-8.0
X7.95Y-4.475
X7.975Y-4.825
X8.0Y-4.425
X8.0Y-6.175
X8.025Y-4.675
X8.025Y-5.175
X8.075Y-4.9
X8.1094Y-5.5379
X8.125Y-4.725
X8.125Y-5.35
X8.175Y-4.95
X8.175Y-5.425
X8.2Y-4.3285
X8.2Y-6.15
X8.275Y-5.0
X8.275Y-5.175
X8.325Y-4.775
X8.375Y-5.05
X8.4Y-5.625
X8.4Y-7.275
X8.4Y-7.875
X8.45Y-5.675
X8.475Y-4.475
X8.5Y-5.725
X8.6Y-5.775
X8.6Y-7.075
X8.65Y-7.825
X8.7Y-5.825
X8.7Y-7.775
X8.75Y-5.875
X8.75Y-7.725
X8.8Y-5.925
X8.8Y-7.675
X8.85Y-5.975
X8.85Y-7.625
X8.9Y-6.025
X8.9Y-7.575
X8.95Y-6.475
X8.95Y-7.525
X8.975Y-4.775
X8.975Y-5.15
X8.975Y-5.975
X9.0Y-6.375
X9.0Y-7.475
X9.025Y-5.05
X9.075Y-5.1
X9.075Y-6.025
X9.125Y-4.775
X9.125Y-4.825
X9.175Y-4.075
X9.175Y-5.05
X9.175Y-5.875
X9.225Y-4.825
X9.225Y-4.9
X9.275Y-4.4
X9.275Y-5.0
X9.275Y-5.925
X9.325Y-4.45
X9.375Y-4.725
X9.375Y-4.85
X9.375Y-5.675
X9.3845Y-6.1653
X9.475Y-4.675
X9.475Y-5.4
X9.475Y-5.925
X9.5Y-5.775
X9.525Y-3.8
X9.525Y-5.875
X9.575Y-4.775
X9.575Y-4.9
X9.575Y-5.825
X9.625Y-4.95
X9.625Y-6.025
X9.675Y-3.675
X9.7Y-5.775
X9.725Y-4.4
X9.725Y-5.725
X9.725Y-5.975
X9.775Y-4.8
X9.825Y-5.35
X9.825Y-5.675
X9.825Y-7.825
X9.875Y-4.7
X9.925Y-3.575
X9.925Y-5.725
X9.925Y-7.775
X9.975Y-4.75
X9.975Y-5.875
X9.975Y-6.575
X10.025Y-5.6
X10.025Y-6.5
X10.025Y-7.725
X10.075Y-4.95
X10.075Y-7.375
X10.125Y-4.5
X10.125Y-7.675
X10.15Y-3.825
X10.175Y-4.65
X10.175Y-5.975
X10.175Y-7.375
X10.225Y-5.2
X10.225Y-5.6
X10.225Y-7.625
X10.25Y-3.775
X10.275Y-4.95
X10.275Y-5.825
X10.275Y-7.225
X10.325Y-7.575
X10.375Y-5.875
X10.375Y-7.325
X10.425Y-4.5
X10.425Y-7.525
X10.475Y-7.425
X10.525Y-7.475
X10.575Y-7.125
X10.625Y-7.275
X10.725Y-7.175
X10.775Y-5.4
X10.775Y-6.925
X10.825Y-7.075
X10.875Y-7.025
X10.925Y-5.4
X10.925Y-6.925
X10.975Y-6.35
X11.025Y-6.975
X11.075Y-6.175
X11.075Y-6.25
X11.075Y-6.775
X11.075Y-6.85
X11.1Y-4.45
X11.125Y-4.55
X11.125Y-5.2
X11.175Y-4.45
X11.1871Y-4.3516
X11.2Y-7.75
X11.225Y-4.4
X11.225Y-5.975
X11.225Y-6.225
X11.425Y-5.65
X11.425Y-6.65
X11.425Y-7.375
T3
X8.1759Y-7.6139
X8.2349Y-7.6139
T4
X6.4884Y-6.3947
X6.4884Y-6.9697
X6.4884Y-7.5447
X6.6884Y-6.3947
X6.6884Y-6.9697
X6.6884Y-7.5447
X7.2171Y-5.5394
X7.2171Y-5.7394
X7.3162Y-5.5394
X7.3162Y-5.7394
X7.4152Y-5.5394
X7.4152Y-5.7394
X7.4884Y-7.1874
X7.5134Y-6.4085
X7.5142Y-5.5394
X7.5142Y-5.7394
X7.6884Y-7.1874
X7.7123Y-3.6588
X7.7123Y-3.8588
X7.7134Y-6.4085
X7.7974Y-3.747
X7.7974Y-3.8355
X7.7974Y-3.9236
X7.7974Y-3.6588
X7.8384Y-7.6116
X7.8384Y-7.8116
X7.9394Y-7.6116
X7.9394Y-7.8116
X7.9974Y-3.747
X7.9974Y-3.8355
X7.9974Y-3.9236
X7.9974Y-3.6588
X8.0789Y-3.6588
X8.0789Y-3.747
X8.0789Y-3.8355
X8.0789Y-3.9236
X8.0987Y-7.6198
X8.0987Y-7.8198
X8.1519Y-5.9491
X8.1525Y-6.0411
X8.2789Y-3.6588
X8.2789Y-3.747
X8.2789Y-3.8355
X8.2789Y-3.9236
X8.3121Y-7.6198
X8.3121Y-7.8198
X8.3519Y-5.9491
X8.3525Y-6.0411
X8.3665Y-3.6588
X8.3665Y-3.8588
X8.4528Y-3.6588
X8.4528Y-3.747
X8.4528Y-3.8355
X8.4528Y-3.9236
X8.6528Y-3.6588
X8.6528Y-3.747
X8.6528Y-3.8355
X8.6528Y-3.9236
X8.6611Y-5.4205
X8.6611Y-5.5385
X8.6971Y-7.9189
X8.7335Y-3.6588
X8.7335Y-3.747
X8.7335Y-3.8355
X8.7335Y-3.9236
X8.8611Y-5.4205
X8.8611Y-5.5385
X8.8971Y-7.9189
X8.9335Y-3.6588
X8.9335Y-3.747
X8.9335Y-3.8355
X8.9335Y-3.9236
X9.0176Y-3.6588
X9.0176Y-3.8588
X9.1017Y-3.6588
X9.1017Y-3.747
X9.1017Y-3.8355
X9.1017Y-3.9236
X9.3017Y-3.6588
X9.3017Y-3.747
X9.3017Y-3.8355
X9.3017Y-3.9236
X9.3837Y-3.6588
X9.3837Y-3.747
X9.3837Y-3.8355
X9.3837Y-3.9236
X9.5837Y-3.6588
X9.5837Y-3.747
X9.5837Y-3.8355
X9.5837Y-3.9236
X10.0884Y-7.8087
X10.2884Y-7.8087
X10.4366Y-5.3577
X10.6366Y-5.3577
X10.9384Y-7.0423
X10.9384Y-7.1413
X10.9384Y-7.2404
X11.1384Y-7.0423
X11.1384Y-7.1413
X11.1384Y-7.2404
X11.1866Y-3.7156
X11.3654Y-5.9116
X11.3654Y-6.1116
X11.3866Y-3.7156
X11.4894Y-5.9116
X11.4894Y-6.1116
T5
X6.6432Y-4.4933
X6.6432Y-3.9151
X6.7416Y-4.4933
X6.7416Y-3.9151
X6.8085Y-6.3947
X6.8085Y-6.9697
X6.8085Y-7.5447
X6.8607Y-4.2796
X6.8607Y-4.378
X6.8607Y-4.0339
X6.8607Y-4.1323
X6.9069Y-6.3947
X6.9069Y-6.9697
X6.9069Y-7.5447
X7.1079Y-4.0323
X7.1079Y-4.1307
X7.1079Y-4.2744
X7.1079Y-4.3728
X7.1964Y-7.2783
X7.1964Y-7.3767
X7.2392Y-3.9114
X7.2392Y-4.4896
X7.3376Y-3.9114
X7.3376Y-4.4896
X7.3642Y-7.3608
X7.3642Y-7.6608
X7.6642Y-7.3608
X7.6642Y-7.6608
X7.7417Y-6.7299
X7.7417Y-6.8283
X7.95Y-6.325
X7.95Y-6.425
X7.95Y-6.525
X7.95Y-6.625
X7.95Y-6.725
X7.95Y-6.825
X7.95Y-6.925
X7.95Y-7.025
X7.95Y-7.125
X7.95Y-7.225
X7.95Y-7.325
X7.9508Y-5.9516
X7.975Y-4.5748
X7.975Y-5.274
X8.033Y-5.4857
X8.033Y-5.7857
X8.0492Y-5.9516
X8.05Y-6.225
X8.05Y-6.325
X8.05Y-6.425
X8.05Y-6.525
X8.05Y-6.625
X8.05Y-6.725
X8.05Y-6.825
X8.05Y-6.925
X8.05Y-7.025
X8.05Y-7.125
X8.05Y-7.225
X8.05Y-7.325
X8.05Y-7.425
X8.0629Y-7.9208
X8.075Y-4.5748
X8.075Y-5.274
X8.15Y-6.225
X8.15Y-6.325
X8.15Y-7.325
X8.15Y-7.425
X8.1613Y-7.9208
X8.175Y-4.5748
X8.175Y-5.274
X8.2495Y-7.9208
X8.25Y-6.225
X8.25Y-6.325
X8.25Y-7.325
X8.25Y-7.425
X8.275Y-4.5748
X8.275Y-5.274
X8.333Y-5.4857
X8.333Y-5.7857
X8.3479Y-7.9208
X8.35Y-6.225
X8.35Y-6.325
X8.35Y-7.325
X8.35Y-7.425
X8.375Y-4.5748
X8.375Y-5.274
X8.4467Y-7.6354
X8.45Y-6.225
X8.45Y-6.325
X8.45Y-7.325
X8.45Y-7.425
X8.475Y-4.5748
X8.475Y-5.274
X8.5451Y-7.6354
X8.5467Y-6.0228
X8.55Y-6.225
X8.55Y-6.325
X8.55Y-7.325
X8.55Y-7.425
X8.575Y-4.5748
X8.575Y-5.274
X8.6451Y-6.0228
X8.65Y-6.225
X8.65Y-6.325
X8.65Y-7.325
X8.65Y-7.425
X8.675Y-4.5748
X8.675Y-5.274
X8.75Y-6.225
X8.75Y-6.325
X8.75Y-7.325
X8.75Y-7.425
X8.775Y-4.5748
X8.775Y-5.274
X8.85Y-6.225
X8.85Y-6.325
X8.85Y-7.325
X8.85Y-7.425
X8.875Y-4.5748
X8.875Y-5.274
X8.95Y-6.225
X8.95Y-6.325
X8.95Y-7.325
X8.95Y-7.425
X8.975Y-4.5748
X8.975Y-5.274
X9.05Y-6.225
X9.05Y-6.325
X9.05Y-6.425
X9.05Y-6.525
X9.05Y-6.625
X9.05Y-6.725
X9.05Y-6.825
X9.05Y-6.925
X9.05Y-7.025
X9.05Y-7.125
X9.05Y-7.225
X9.05Y-7.325
X9.05Y-7.425
X9.075Y-4.5748
X9.075Y-5.274
X9.15Y-6.325
X9.15Y-6.425
X9.15Y-6.525
X9.15Y-6.625
X9.15Y-6.725
X9.15Y-6.825
X9.15Y-6.925
X9.15Y-7.025
X9.15Y-7.125
X9.15Y-7.225
X9.15Y-7.325
X9.175Y-4.5748
X9.175Y-5.274
X9.275Y-4.5748
X9.275Y-5.274
X9.3459Y-6.7217
X9.3459Y-6.8201
X9.375Y-4.5748
X9.375Y-5.274
X9.475Y-4.5748
X9.475Y-5.274
X9.475Y-5.5
X9.475Y-6.1
X9.475Y-6.25
X9.475Y-6.85
X9.575Y-4.5748
X9.575Y-5.274
X9.575Y-5.5
X9.575Y-6.1
X9.575Y-6.25
X9.575Y-6.85
X9.675Y-4.5748
X9.675Y-5.274
X9.675Y-5.5
X9.675Y-6.1
X9.675Y-6.25
X9.675Y-6.85
X9.775Y-4.5748
X9.775Y-5.274
X9.775Y-5.5
X9.775Y-6.1
X9.775Y-6.25
X9.775Y-6.85
X9.875Y-4.5748
X9.875Y-5.274
X9.875Y-5.5
X9.875Y-6.1
X9.875Y-6.25
X9.875Y-6.85
X9.975Y-4.5748
X9.975Y-5.274
X9.975Y-5.5
X9.975Y-6.1
X9.975Y-6.25
X9.975Y-6.85
X10.075Y-4.5748
X10.075Y-5.274
X10.075Y-5.5
X10.075Y-6.1
X10.075Y-6.25
X10.075Y-6.85
X10.175Y-4.5748
X10.175Y-5.274
X10.175Y-5.5
X10.175Y-6.1
X10.175Y-6.25
X10.175Y-6.85
X10.275Y-4.5748
X10.275Y-5.274
X10.275Y-5.5
X10.275Y-6.1
X10.275Y-6.25
X10.275Y-6.85
X10.375Y-5.5
X10.375Y-6.1
X10.375Y-6.25
X10.375Y-6.85
X10.475Y-5.5
X10.475Y-6.1
X10.475Y-6.25
X10.475Y-6.85
X10.575Y-5.5
X10.575Y-6.1
X10.575Y-6.25
X10.575Y-6.85
X10.675Y-5.5
X10.675Y-6.1
X10.675Y-6.25
X10.675Y-6.85
X10.775Y-5.5
X10.775Y-6.1
X10.775Y-6.25
X10.775Y-6.85
X10.875Y-5.5
X10.875Y-6.1
X10.875Y-6.25
X10.875Y-6.85
X10.975Y-5.5
X10.975Y-6.1
X10.975Y-6.25
X10.975Y-6.85
X11.0957Y-5.751
X11.0957Y-5.8494
X11.102Y-6.501
X11.102Y-6.5994
X11.287Y-6.339
X11.287Y-6.439
X11.287Y-6.539
X11.287Y-6.639
X11.287Y-6.739
X11.287Y-6.839
X11.287Y-6.939
X11.287Y-7.039
X11.287Y-7.139
X11.287Y-7.239
X11.287Y-7.339
X11.287Y-7.439
X11.3874Y-6.2144
X11.4858Y-6.2144
X11.587Y-6.339
X11.587Y-6.439
X11.587Y-6.539
X11.587Y-6.639
X11.587Y-6.739
X11.587Y-6.839
X11.587Y-6.939
X11.587Y-7.039
X11.587Y-7.139
X11.587Y-7.239
X11.587Y-7.339
X11.587Y-7.439
T6
X6.4884Y-6.0565
X6.4884Y-6.2565
X6.4884Y-6.6315
X6.4884Y-6.8315
X6.4884Y-7.2065
X6.4884Y-7.4065
X6.7884Y-6.0565
X6.7884Y-6.2565
X6.7884Y-6.6315
X6.7884Y-6.8315
X6.7884Y-7.2065
X6.7884Y-7.4065
T7
X8.5635Y-7.817
X8.5635Y-7.917
T8
X6.938Y-6.0719
X6.938Y-6.1719
X6.938Y-6.6469
X6.938Y-6.7469
X6.938Y-7.2219
X6.938Y-7.3219
X7.5913Y-4.6969
X7.5913Y-4.7969
X7.5913Y-4.8969
X7.5913Y-4.9969
X7.5913Y-5.0969
X7.5913Y-5.1969
X8.4317Y-3.4199
X8.4768Y-3.342
X8.4768Y-3.4979
X8.5219Y-3.4199
X8.5669Y-3.342
X8.5669Y-3.4979
X8.612Y-3.4199
X8.6571Y-3.342
X8.6571Y-3.4979
X8.7022Y-3.4199
X8.7472Y-3.342
X8.7472Y-3.4979
X8.7923Y-3.4199
X8.8374Y-3.342
X8.8374Y-3.4979
X9.9888Y-3.8998
X10.0888Y-3.8998
X10.1888Y-3.8998
X10.2888Y-3.8998
X10.3888Y-3.8998
X10.4888Y-3.8998
X10.5888Y-3.8998
X10.6888Y-3.8998
X10.7888Y-3.8998
X11.0388Y-3.3748
X11.0388Y-3.4748
X11.0388Y-3.5748
X11.0388Y-3.6748
X11.0388Y-3.7748
X11.0388Y-3.8748
X11.35Y-3.85
X11.35Y-3.95
X11.35Y-4.05
X11.35Y-4.15
X11.35Y-4.25
X11.35Y-4.35
X11.35Y-4.45
X11.35Y-4.55
X11.35Y-4.65
X11.35Y-4.75
X11.35Y-4.85
X11.35Y-4.95
X11.35Y-5.05
X11.35Y-5.15
X11.45Y-3.85
X11.45Y-3.95
X11.45Y-4.05
X11.45Y-4.15
X11.45Y-4.25
X11.45Y-4.35
X11.45Y-4.45
X11.45Y-4.55
X11.45Y-4.65
X11.45Y-4.75
X11.45Y-4.85
X11.45Y-4.95
X11.45Y-5.05
X11.45Y-5.15
T9
X6.5879Y-4.1096
X6.5879Y-4.2096
X6.5879Y-4.3096
X7.3917Y-4.1005
X7.3917Y-4.2005
X7.3917Y-4.3005
T10
X6.4587Y-8.002
X6.6161Y-8.002
X6.7736Y-8.002
X7.0295Y-8.002
X7.187Y-8.002
X7.3445Y-8.002
X7.502Y-8.002
X10.527Y-8.002
X10.6844Y-8.002
X10.8419Y-8.002
X10.9994Y-8.002
X11.2553Y-8.002
X11.4128Y-8.002
X11.5703Y-8.002
T11
X6.5711Y-3.5341
X6.5711Y-7.7461
X8.1545Y-3.4172
X9.1388Y-3.4172
X11.4711Y-3.5341
X11.4711Y-7.7461
T8
G00X6.8486Y-3.5807
M15
G01X6.8486Y-3.6594
M16
G05
G00X7.073Y-3.502
M15
G01X6.9943Y-3.502
M16
G05
G00X7.073Y-3.7382
M15
G01X6.9943Y-3.7382
M16
G05
T0
M30
