%TF.GenerationSoftware,KiCad,Pcbnew,7.0.7*%
%TF.CreationDate,2024-02-01T01:26:26-05:00*%
%TF.ProjectId,Sentinel 65X - Prototype 3 Mini,53656e74-696e-4656-9c20-363558202d20,rev?*%
%TF.SameCoordinates,Original*%
%TF.FileFunction,Soldermask,Bot*%
%TF.FilePolarity,Negative*%
%FSLAX46Y46*%
G04 Gerber Fmt 4.6, Leading zero omitted, Abs format (unit mm)*
G04 Created by KiCad (PCBNEW 7.0.7) date 2024-02-01 01:26:26*
%MOMM*%
%LPD*%
G01*
G04 APERTURE LIST*
G04 Aperture macros list*
%AMRoundRect*
0 Rectangle with rounded corners*
0 $1 Rounding radius*
0 $2 $3 $4 $5 $6 $7 $8 $9 X,Y pos of 4 corners*
0 Add a 4 corners polygon primitive as box body*
4,1,4,$2,$3,$4,$5,$6,$7,$8,$9,$2,$3,0*
0 Add four circle primitives for the rounded corners*
1,1,$1+$1,$2,$3*
1,1,$1+$1,$4,$5*
1,1,$1+$1,$6,$7*
1,1,$1+$1,$8,$9*
0 Add four rect primitives between the rounded corners*
20,1,$1+$1,$2,$3,$4,$5,0*
20,1,$1+$1,$4,$5,$6,$7,0*
20,1,$1+$1,$6,$7,$8,$9,0*
20,1,$1+$1,$8,$9,$2,$3,0*%
G04 Aperture macros list end*
%ADD10C,1.400000*%
%ADD11O,1.400000X1.400000*%
%ADD12C,1.600000*%
%ADD13R,1.800000X1.800000*%
%ADD14C,1.800000*%
%ADD15R,1.600000X2.400000*%
%ADD16O,1.600000X2.400000*%
%ADD17R,1.700000X1.700000*%
%ADD18O,1.700000X1.700000*%
%ADD19R,2.400000X1.600000*%
%ADD20O,2.400000X1.600000*%
%ADD21C,1.700000*%
%ADD22C,5.600000*%
%ADD23R,2.000000X1.905000*%
%ADD24O,2.000000X1.905000*%
%ADD25C,1.397000*%
%ADD26C,1.000000*%
%ADD27R,1.600000X1.600000*%
%ADD28R,1.422400X1.422400*%
%ADD29C,1.422400*%
%ADD30C,2.500000*%
%ADD31R,3.500000X3.500000*%
%ADD32RoundRect,0.750000X-1.000000X0.750000X-1.000000X-0.750000X1.000000X-0.750000X1.000000X0.750000X0*%
%ADD33RoundRect,0.875000X-0.875000X0.875000X-0.875000X-0.875000X0.875000X-0.875000X0.875000X0.875000X0*%
%ADD34C,4.000000*%
G04 APERTURE END LIST*
D10*
%TO.C,R32*%
X188345320Y-145781300D03*
D11*
X188345320Y-140701300D03*
%TD*%
D12*
%TO.C,C16*%
X171237727Y-99444243D03*
X168737727Y-99444243D03*
%TD*%
D13*
%TO.C,D1*%
X217512142Y-201092159D03*
D14*
X217512142Y-198552159D03*
%TD*%
D10*
%TO.C,R38*%
X199095000Y-198415001D03*
D11*
X199095000Y-193335001D03*
%TD*%
D10*
%TO.C,R27*%
X231183589Y-99659132D03*
D11*
X236263589Y-99659132D03*
%TD*%
D12*
%TO.C,C3*%
X217045000Y-193940000D03*
X214545000Y-193940000D03*
%TD*%
D10*
%TO.C,R40*%
X207072796Y-153443137D03*
D11*
X212152796Y-153443137D03*
%TD*%
D15*
%TO.C,U3*%
X278765000Y-139700000D03*
D16*
X276225000Y-139700000D03*
X273685000Y-139700000D03*
X271145000Y-139700000D03*
X268605000Y-139700000D03*
X266065000Y-139700000D03*
X263525000Y-139700000D03*
X260985000Y-139700000D03*
X258445000Y-139700000D03*
X255905000Y-139700000D03*
X253365000Y-139700000D03*
X250825000Y-139700000D03*
X248285000Y-139700000D03*
X245745000Y-139700000D03*
X243205000Y-139700000D03*
X240665000Y-139700000D03*
X240665000Y-154940000D03*
X243205000Y-154940000D03*
X245745000Y-154940000D03*
X248285000Y-154940000D03*
X250825000Y-154940000D03*
X253365000Y-154940000D03*
X255905000Y-154940000D03*
X258445000Y-154940000D03*
X260985000Y-154940000D03*
X263525000Y-154940000D03*
X266065000Y-154940000D03*
X268605000Y-154940000D03*
X271145000Y-154940000D03*
X273685000Y-154940000D03*
X276225000Y-154940000D03*
X278765000Y-154940000D03*
%TD*%
D17*
%TO.C,J7*%
X176225000Y-168830000D03*
D18*
X176225000Y-171370000D03*
%TD*%
D12*
%TO.C,C14*%
X172935000Y-162425000D03*
X175435000Y-162425000D03*
%TD*%
D10*
%TO.C,R8*%
X198052832Y-97422375D03*
D11*
X203132832Y-97422375D03*
%TD*%
D10*
%TO.C,R10*%
X212510000Y-92932650D03*
D11*
X212510000Y-98012650D03*
%TD*%
D10*
%TO.C,R39*%
X190205000Y-182560000D03*
D11*
X195285000Y-182560000D03*
%TD*%
D12*
%TO.C,C11*%
X201949961Y-151169553D03*
X204449961Y-151169553D03*
%TD*%
D10*
%TO.C,R47*%
X270170001Y-136085000D03*
D11*
X265090001Y-136085000D03*
%TD*%
D10*
%TO.C,R36*%
X277835000Y-183905000D03*
D11*
X282915000Y-183905000D03*
%TD*%
D10*
%TO.C,R52*%
X225071555Y-137681712D03*
D11*
X219991555Y-137681712D03*
%TD*%
D10*
%TO.C,R6*%
X205205171Y-97422375D03*
D11*
X210285171Y-97422375D03*
%TD*%
D10*
%TO.C,R18*%
X214701973Y-99659132D03*
D11*
X219781973Y-99659132D03*
%TD*%
D10*
%TO.C,R14*%
X214701973Y-95174830D03*
D11*
X219781973Y-95174830D03*
%TD*%
D10*
%TO.C,R45*%
X164805000Y-177030000D03*
D11*
X169885000Y-177030000D03*
%TD*%
D19*
%TO.C,U4*%
X286690000Y-161010000D03*
D20*
X286690000Y-163550000D03*
X286690000Y-166090000D03*
X286690000Y-168630000D03*
X286690000Y-171170000D03*
X286690000Y-173710000D03*
X286690000Y-176250000D03*
X286690000Y-178790000D03*
X286690000Y-181330000D03*
X286690000Y-183870000D03*
X286690000Y-186410000D03*
X286690000Y-188950000D03*
X294310000Y-188950000D03*
X294310000Y-186410000D03*
X294310000Y-183870000D03*
X294310000Y-181330000D03*
X294310000Y-178790000D03*
X294310000Y-176250000D03*
X294310000Y-173710000D03*
X294310000Y-171170000D03*
X294310000Y-168630000D03*
X294310000Y-166090000D03*
X294310000Y-163550000D03*
X294310000Y-161010000D03*
%TD*%
D10*
%TO.C,R22*%
X231183589Y-92932650D03*
D11*
X236263589Y-92932650D03*
%TD*%
D12*
%TO.C,C17*%
X168737726Y-114129243D03*
X171237726Y-114129243D03*
%TD*%
%TO.C,C20*%
X186375000Y-99349999D03*
X183875000Y-99349999D03*
%TD*%
D10*
%TO.C,R7*%
X205205171Y-99659132D03*
D11*
X210285171Y-99659132D03*
%TD*%
D21*
%TO.C,U6*%
X280385000Y-98420000D03*
X280385000Y-95880000D03*
X280385000Y-93340000D03*
X280385000Y-90800000D03*
X280385000Y-88260000D03*
X280385000Y-85720000D03*
X253715000Y-99055000D03*
X256255000Y-99055000D03*
X258795000Y-99055000D03*
X261335000Y-99055000D03*
X263875000Y-99055000D03*
X266415000Y-99055000D03*
X268955000Y-99055000D03*
X271495000Y-99055000D03*
X274035000Y-99055000D03*
%TD*%
D15*
%TO.C,U5*%
X202565000Y-133960000D03*
D16*
X205105000Y-133960000D03*
X207645000Y-133960000D03*
X210185000Y-133960000D03*
X212725000Y-133960000D03*
X215265000Y-133960000D03*
X217805000Y-133960000D03*
X220345000Y-133960000D03*
X222885000Y-133960000D03*
X225425000Y-133960000D03*
X227965000Y-133960000D03*
X230505000Y-133960000D03*
X233045000Y-133960000D03*
X235585000Y-133960000D03*
X238125000Y-133960000D03*
X240665000Y-133960000D03*
X243205000Y-133960000D03*
X245745000Y-133960000D03*
X248285000Y-133960000D03*
X250825000Y-133960000D03*
X253365000Y-133960000D03*
X255905000Y-133960000D03*
X258445000Y-133960000D03*
X260985000Y-133960000D03*
X260985000Y-116200000D03*
X258445000Y-116200000D03*
X255905000Y-116200000D03*
X253365000Y-116200000D03*
X250825000Y-116200000D03*
X248285000Y-116200000D03*
X245745000Y-116200000D03*
X243205000Y-116200000D03*
X240665000Y-116200000D03*
X238125000Y-116200000D03*
X235585000Y-116200000D03*
X233045000Y-116200000D03*
X230505000Y-116200000D03*
X227965000Y-116200000D03*
X225425000Y-116200000D03*
X222885000Y-116200000D03*
X220345000Y-116200000D03*
X217805000Y-116200000D03*
X215265000Y-116200000D03*
X212725000Y-116200000D03*
X210185000Y-116200000D03*
X207645000Y-116200000D03*
X205105000Y-116200000D03*
X202565000Y-116200000D03*
%TD*%
D12*
%TO.C,C12*%
X172935000Y-191635000D03*
X175435000Y-191635000D03*
%TD*%
D10*
%TO.C,R31*%
X185830319Y-145781300D03*
D11*
X185830319Y-140701300D03*
%TD*%
D12*
%TO.C,C2*%
X237385000Y-173229999D03*
X237385000Y-170729999D03*
%TD*%
D10*
%TO.C,R49*%
X288680000Y-155235000D03*
D11*
X288680000Y-150155000D03*
%TD*%
D10*
%TO.C,R44*%
X164805000Y-191635000D03*
D11*
X169885000Y-191635000D03*
%TD*%
D10*
%TO.C,R28*%
X205706901Y-198622178D03*
D11*
X205706901Y-193542178D03*
%TD*%
D12*
%TO.C,C10*%
X209537482Y-201188257D03*
X212037482Y-201188257D03*
%TD*%
D10*
%TO.C,R42*%
X289220000Y-94375000D03*
D11*
X284140000Y-94375000D03*
%TD*%
D22*
%TO.C,H3*%
X291365000Y-89765000D03*
%TD*%
D10*
%TO.C,R51*%
X220906936Y-201139928D03*
D11*
X225986936Y-201139928D03*
%TD*%
D23*
%TO.C,U7*%
X167332726Y-104384243D03*
D24*
X167332726Y-106924243D03*
X167332726Y-109464243D03*
%TD*%
D12*
%TO.C,C1*%
X219585000Y-152980000D03*
X217085000Y-152980000D03*
%TD*%
%TO.C,C21*%
X183875001Y-114035000D03*
X186375001Y-114035000D03*
%TD*%
%TO.C,C7*%
X289240000Y-157844999D03*
X291740000Y-157844999D03*
%TD*%
D10*
%TO.C,R16*%
X221832157Y-99659132D03*
D11*
X226912157Y-99659132D03*
%TD*%
D10*
%TO.C,R12*%
X221832157Y-95174830D03*
D11*
X226912157Y-95174830D03*
%TD*%
D25*
%TO.C,SW2*%
X164805000Y-168440000D03*
X172425000Y-168440000D03*
X164805000Y-173520000D03*
X172425000Y-173520000D03*
%TD*%
D10*
%TO.C,R26*%
X231183589Y-97422375D03*
D11*
X236263589Y-97422375D03*
%TD*%
D10*
%TO.C,R11*%
X221832157Y-92932650D03*
D11*
X226912157Y-92932650D03*
%TD*%
D25*
%TO.C,SW1*%
X164805000Y-183045000D03*
X172425000Y-183045000D03*
X164805000Y-188125000D03*
X172425000Y-188125000D03*
%TD*%
D12*
%TO.C,C4*%
X196640000Y-170940000D03*
X196640000Y-173440000D03*
%TD*%
D10*
%TO.C,R17*%
X214701973Y-97422375D03*
D11*
X219781973Y-97422375D03*
%TD*%
D10*
%TO.C,R25*%
X238346322Y-99659132D03*
D11*
X243426322Y-99659132D03*
%TD*%
D10*
%TO.C,R23*%
X231183589Y-95174830D03*
D11*
X236263589Y-95174830D03*
%TD*%
D10*
%TO.C,R33*%
X190860319Y-140701300D03*
D11*
X190860319Y-145781300D03*
%TD*%
D17*
%TO.C,J1*%
X290830000Y-97790000D03*
D18*
X288290000Y-97790000D03*
X290830000Y-100330000D03*
X288290000Y-100330000D03*
X290830000Y-102870000D03*
X288290000Y-102870000D03*
X290830000Y-105410000D03*
X288290000Y-105410000D03*
X290830000Y-107950000D03*
X288290000Y-107950000D03*
X290830000Y-110490000D03*
X288290000Y-110490000D03*
X290830000Y-113030000D03*
X288290000Y-113030000D03*
X290830000Y-115570000D03*
X288290000Y-115570000D03*
X290830000Y-118110000D03*
X288290000Y-118110000D03*
X290830000Y-120650000D03*
X288290000Y-120650000D03*
X290830000Y-123190000D03*
X288290000Y-123190000D03*
X290830000Y-125730000D03*
X288290000Y-125730000D03*
X290830000Y-128270000D03*
X288290000Y-128270000D03*
X290830000Y-130810000D03*
X288290000Y-130810000D03*
%TD*%
D10*
%TO.C,R4*%
X198052833Y-92932650D03*
D11*
X203132833Y-92932650D03*
%TD*%
D10*
%TO.C,R46*%
X164805000Y-162425000D03*
D11*
X169885000Y-162425000D03*
%TD*%
D10*
%TO.C,R15*%
X221832157Y-97422375D03*
D11*
X226912157Y-97422375D03*
%TD*%
D26*
%TO.C,X2*%
X207667592Y-193392178D03*
X209167592Y-193392178D03*
%TD*%
D22*
%TO.C,H2*%
X166905000Y-89765000D03*
%TD*%
D10*
%TO.C,R19*%
X229046622Y-92932650D03*
D11*
X229046622Y-98012650D03*
%TD*%
D12*
%TO.C,C5*%
X281990000Y-167625000D03*
X281990000Y-165125000D03*
%TD*%
D10*
%TO.C,R13*%
X214701973Y-92932650D03*
D11*
X219781973Y-92932650D03*
%TD*%
D27*
%TO.C,C19*%
X180540000Y-102420151D03*
D12*
X180540000Y-104920151D03*
%TD*%
D28*
%TO.C,U1*%
X201930000Y-173355000D03*
D29*
X204470000Y-173355000D03*
X201930000Y-175895000D03*
X204470000Y-175895000D03*
X201930000Y-178435000D03*
X204470000Y-178435000D03*
X201930000Y-180975000D03*
X204470000Y-180975000D03*
X201930000Y-183515000D03*
X204470000Y-183515000D03*
X201930000Y-186055000D03*
X204470000Y-188595000D03*
X204470000Y-186055000D03*
X207010000Y-188595000D03*
X207010000Y-186055000D03*
X209550000Y-188595000D03*
X209550000Y-186055000D03*
X212090000Y-188595000D03*
X212090000Y-186055000D03*
X214630000Y-188595000D03*
X214630000Y-186055000D03*
X217170000Y-188595000D03*
X217170000Y-186055000D03*
X219710000Y-188595000D03*
X219710000Y-186055000D03*
X222250000Y-188595000D03*
X222250000Y-186055000D03*
X224790000Y-188595000D03*
X224790000Y-186055000D03*
X227330000Y-188595000D03*
X227330000Y-186055000D03*
X229870000Y-188595000D03*
X232410000Y-186055000D03*
X229870000Y-186055000D03*
X232410000Y-183515000D03*
X229870000Y-183515000D03*
X232410000Y-180975000D03*
X229870000Y-180975000D03*
X232410000Y-178435000D03*
X229870000Y-178435000D03*
X232410000Y-175895000D03*
X229870000Y-175895000D03*
X232410000Y-173355000D03*
X229870000Y-173355000D03*
X232410000Y-170815000D03*
X229870000Y-170815000D03*
X232410000Y-168275000D03*
X229870000Y-168275000D03*
X232410000Y-165735000D03*
X229870000Y-165735000D03*
X232410000Y-163195000D03*
X229870000Y-163195000D03*
X232410000Y-160655000D03*
X229870000Y-158115000D03*
X229870000Y-160655000D03*
X227330000Y-158115000D03*
X227330000Y-160655000D03*
X224790000Y-158115000D03*
X224790000Y-160655000D03*
X222250000Y-158115000D03*
X222250000Y-160655000D03*
X219710000Y-158115000D03*
X219710000Y-160655000D03*
X217170000Y-158115000D03*
X217170000Y-160655000D03*
X214630000Y-158115000D03*
X214630000Y-160655000D03*
X212090000Y-158115000D03*
X212090000Y-160655000D03*
X209550000Y-158115000D03*
X209550000Y-160655000D03*
X207010000Y-158115000D03*
X207010000Y-160655000D03*
X204470000Y-158115000D03*
X201930000Y-160655000D03*
X204470000Y-160655000D03*
X201930000Y-163195000D03*
X204470000Y-163195000D03*
X201930000Y-165735000D03*
X204470000Y-165735000D03*
X201930000Y-168275000D03*
X204470000Y-168275000D03*
X201930000Y-170815000D03*
X204470000Y-170815000D03*
%TD*%
D10*
%TO.C,R30*%
X183315319Y-145781300D03*
D11*
X183315319Y-140701300D03*
%TD*%
D10*
%TO.C,R9*%
X198052832Y-99659132D03*
D11*
X203132832Y-99659132D03*
%TD*%
D27*
%TO.C,C18*%
X174262726Y-108702425D03*
D12*
X174262726Y-111202425D03*
%TD*%
D10*
%TO.C,R24*%
X238346322Y-97422375D03*
D11*
X243426322Y-97422375D03*
%TD*%
D10*
%TO.C,R53*%
X225071555Y-140677810D03*
D11*
X219991555Y-140677810D03*
%TD*%
D30*
%TO.C,J4*%
X267385000Y-203250000D03*
X271385000Y-203250000D03*
X275385000Y-203250000D03*
X279385000Y-203250000D03*
X285885000Y-203250000D03*
X289885000Y-203250000D03*
X293885000Y-203250000D03*
%TD*%
D31*
%TO.C,J9*%
X178655000Y-94950001D03*
D32*
X178655000Y-88950001D03*
D33*
X173955000Y-91950001D03*
%TD*%
D10*
%TO.C,R20*%
X238346322Y-92932650D03*
D11*
X243426322Y-92932650D03*
%TD*%
D22*
%TO.C,H4*%
X291365000Y-196750000D03*
%TD*%
D10*
%TO.C,R35*%
X277835000Y-181390000D03*
D11*
X282915000Y-181390000D03*
%TD*%
D15*
%TO.C,U2*%
X278765000Y-158750000D03*
D16*
X276225000Y-158750000D03*
X273685000Y-158750000D03*
X271145000Y-158750000D03*
X268605000Y-158750000D03*
X266065000Y-158750000D03*
X263525000Y-158750000D03*
X260985000Y-158750000D03*
X258445000Y-158750000D03*
X255905000Y-158750000D03*
X253365000Y-158750000D03*
X250825000Y-158750000D03*
X248285000Y-158750000D03*
X245745000Y-158750000D03*
X243205000Y-158750000D03*
X240665000Y-158750000D03*
X240665000Y-173990000D03*
X243205000Y-173990000D03*
X245745000Y-173990000D03*
X248285000Y-173990000D03*
X250825000Y-173990000D03*
X253365000Y-173990000D03*
X255905000Y-173990000D03*
X258445000Y-173990000D03*
X260985000Y-173990000D03*
X263525000Y-173990000D03*
X266065000Y-173990000D03*
X268605000Y-173990000D03*
X271145000Y-173990000D03*
X273685000Y-173990000D03*
X276225000Y-173990000D03*
X278765000Y-173990000D03*
%TD*%
D12*
%TO.C,C9*%
X207297703Y-201188257D03*
X204797703Y-201188257D03*
%TD*%
D10*
%TO.C,R50*%
X291830000Y-155235000D03*
D11*
X291830000Y-150155000D03*
%TD*%
D22*
%TO.C,H1*%
X166905000Y-196750000D03*
%TD*%
D10*
%TO.C,R5*%
X198052832Y-95174830D03*
D11*
X203132832Y-95174830D03*
%TD*%
D17*
%TO.C,J8*%
X176225000Y-154225000D03*
D18*
X176225000Y-156765000D03*
%TD*%
D17*
%TO.C,J6*%
X176225000Y-183435000D03*
D18*
X176225000Y-185975000D03*
%TD*%
D23*
%TO.C,U8*%
X187750000Y-109232500D03*
D24*
X187750000Y-106692500D03*
X187750000Y-104152500D03*
%TD*%
D10*
%TO.C,R34*%
X277835000Y-178875000D03*
D11*
X282915000Y-178875000D03*
%TD*%
D10*
%TO.C,R43*%
X190840000Y-162775000D03*
D11*
X195920000Y-162775000D03*
%TD*%
D27*
%TO.C,C22*%
X180540000Y-108570075D03*
D12*
X180540000Y-111070075D03*
%TD*%
D10*
%TO.C,R48*%
X261325000Y-198340000D03*
D11*
X256245000Y-198340000D03*
%TD*%
D12*
%TO.C,C8*%
X182787472Y-184868586D03*
X182787472Y-187368586D03*
%TD*%
D10*
%TO.C,R21*%
X238346322Y-95174830D03*
D11*
X243426322Y-95174830D03*
%TD*%
D10*
%TO.C,R3*%
X205205171Y-95174830D03*
D11*
X210285171Y-95174830D03*
%TD*%
D27*
%TO.C,C15*%
X174262727Y-102460834D03*
D12*
X174262727Y-104960834D03*
%TD*%
D27*
%TO.C,X3*%
X204037305Y-146957666D03*
D12*
X211657305Y-146957666D03*
X211657305Y-139337666D03*
X204037305Y-139337666D03*
%TD*%
D10*
%TO.C,R2*%
X205205171Y-92932650D03*
D11*
X210285171Y-92932650D03*
%TD*%
D34*
%TO.C,J2*%
X232125000Y-86795662D03*
X207125000Y-86795662D03*
D27*
X215310000Y-88845662D03*
D12*
X217600000Y-88845662D03*
X219890000Y-88845662D03*
X222180000Y-88845662D03*
X224470000Y-88845662D03*
X214165000Y-86865662D03*
X216455000Y-86865662D03*
X218745000Y-86865662D03*
X221035000Y-86865662D03*
X223325000Y-86865662D03*
X215310000Y-84885662D03*
X217600000Y-84885662D03*
X219890000Y-84885662D03*
X222180000Y-84885662D03*
X224470000Y-84885662D03*
%TD*%
D10*
%TO.C,R1*%
X195892390Y-92932650D03*
D11*
X195892390Y-98012650D03*
%TD*%
D12*
%TO.C,C13*%
X172935000Y-177030000D03*
X175435000Y-177030000D03*
%TD*%
D30*
%TO.C,J3*%
X190550000Y-203250000D03*
X186550000Y-203250000D03*
X182550000Y-203250000D03*
X178550000Y-203250000D03*
X172050000Y-203250000D03*
X168050000Y-203250000D03*
X164050000Y-203250000D03*
%TD*%
D17*
%TO.C,J5*%
X192820000Y-119300000D03*
D18*
X192820000Y-121840000D03*
X192820000Y-124380000D03*
X192820000Y-126920000D03*
X192820000Y-129460000D03*
X192820000Y-132000000D03*
%TD*%
D12*
%TO.C,C6*%
X281830000Y-148575000D03*
X281830000Y-146075000D03*
%TD*%
D25*
%TO.C,SW3*%
X164805000Y-153835000D03*
X172425000Y-153835000D03*
X164805000Y-158915000D03*
X172425000Y-158915000D03*
%TD*%
D10*
%TO.C,R29*%
X211128283Y-193542178D03*
D11*
X211128283Y-198622178D03*
%TD*%
D10*
%TO.C,R41*%
X207057673Y-151106949D03*
D11*
X212137673Y-151106949D03*
%TD*%
D27*
%TO.C,X1*%
X187050000Y-186965000D03*
D12*
X187050000Y-194585000D03*
X194670000Y-194585000D03*
X194670000Y-186965000D03*
%TD*%
D10*
%TO.C,R37*%
X201660000Y-198415000D03*
D11*
X201660000Y-193335000D03*
%TD*%
M02*
